<svg width="58" height="66" viewBox="0 0 58 66" fill="none" xmlns="http://www.w3.org/2000/svg">
<g clip-path="url(#clip0_15_203)">
<path d="M31.7714 19.1953C28.3703 18.439 24.8517 18.769 21.6053 20.1486C21.4477 20.2196 21.3039 20.3253 21.1821 20.4595C21.0604 20.5938 20.9631 20.754 20.8958 20.9311C20.7598 21.2886 20.7542 21.693 20.8803 22.0553C21.0063 22.4175 21.2537 22.7079 21.5679 22.8627C21.8821 23.0174 22.2375 23.0237 22.5558 22.8803C25.3511 21.6776 28.3832 21.3732 31.3203 22.0003C31.4925 22.0518 31.6721 22.0622 31.848 22.0309C32.0239 21.9995 32.1922 21.927 32.3422 21.8179C32.4922 21.7088 32.6208 21.5656 32.7197 21.3972C32.8187 21.2288 32.8859 21.0388 32.9172 20.8394C32.9485 20.64 32.9431 20.4353 32.9014 20.2384C32.8597 20.0414 32.7826 19.8564 32.6749 19.6951C32.5673 19.5337 32.4314 19.3995 32.2759 19.3008C32.1204 19.2022 31.9486 19.1413 31.7714 19.1219V19.1953Z" fill="white"/>
<path d="M40.8902 33.1285C42.1003 33.1285 43.0813 32.0122 43.0813 30.6352C43.0813 29.2581 42.1003 28.1418 40.8902 28.1418C39.6801 28.1418 38.6991 29.2581 38.6991 30.6352C38.6991 32.0122 39.6801 33.1285 40.8902 33.1285Z" fill="white"/>
<path d="M57.2109 34.1547C57.0616 33.9033 56.8598 33.698 56.6236 33.5573C56.3874 33.4165 56.1242 33.3446 55.8576 33.3481C54.5559 33.1425 53.3617 32.4142 52.4904 31.2947C50.8136 29.2092 49.3887 26.8787 48.2531 24.3647L52.8931 16.1147C53.1747 15.6366 53.3472 15.0863 53.395 14.5133C53.4428 13.9404 53.3645 13.3629 53.167 12.8331C52.9693 12.351 52.6704 11.9317 52.2968 11.612C51.9231 11.2923 51.4861 11.082 51.0243 10.9997C48.0736 10.5472 45.0704 11.0228 42.3404 12.3747C40.7758 13.1589 39.3036 14.1629 37.9581 15.3631C35.323 14.0185 32.517 13.1583 29.6448 12.8147C18.222 11.5497 7.78203 19.9831 6.44481 31.1664C5.92367 30.8996 5.45693 30.5125 5.0742 30.0297C4.69147 29.5468 4.40109 28.9787 4.22147 28.3614C4.1066 27.9381 4.06738 27.4929 4.10612 27.0521C4.14486 26.6113 4.26077 26.1838 4.44703 25.7947C4.61406 25.4681 4.85278 25.1965 5.13981 25.0064C5.33551 24.8716 5.50597 24.6942 5.64143 24.4844C5.7769 24.2746 5.87473 24.0365 5.92934 23.7837C5.98394 23.5309 5.99426 23.2684 5.95969 23.011C5.92512 22.7537 5.84634 22.5066 5.72786 22.2839C5.60938 22.0612 5.45351 21.8672 5.26916 21.7131C5.0848 21.5589 4.87557 21.4476 4.6534 21.3855C4.43124 21.3233 4.2005 21.3116 3.97435 21.3509C3.7482 21.3903 3.53107 21.4799 3.33536 21.6147C2.55546 22.1595 1.91186 22.9234 1.46647 23.8331C1.05239 24.6868 0.792089 25.6259 0.700798 26.5955C0.609508 27.565 0.689063 28.5456 0.934808 29.4797C1.23729 30.6117 1.73891 31.6619 2.40916 32.5664C3.07941 33.4709 3.9043 34.2109 4.8337 34.7414L6.31592 35.5847C6.50109 40.0475 7.49963 44.4178 9.24814 48.4181L9.52203 49.1147C10.9194 52.4777 12.7017 55.6155 14.8226 58.4464C14.9736 58.642 15.1594 58.7987 15.3678 58.9062C15.5761 59.0136 15.8022 59.0694 16.0309 59.0697H23.3131C23.577 59.0682 23.8365 58.993 24.0689 58.8507C24.3012 58.7083 24.4993 58.5032 24.6456 58.2534C24.792 58.0035 24.8822 57.7166 24.9083 57.4178C24.9344 57.119 24.8956 56.8175 24.7954 56.5397L24.167 54.8897L26.0681 55.1281C28.2111 55.3691 30.3697 55.3691 32.5126 55.1281C33.1087 56.2281 33.7531 57.3281 34.462 58.4097C34.6104 58.6408 34.8043 58.8291 35.0281 58.9597C35.2519 59.0902 35.4994 59.1593 35.7509 59.1614H42.7431C43.0091 59.1612 43.2708 59.086 43.505 58.9427C43.7392 58.7993 43.9386 58.5923 44.0853 58.3399C44.2321 58.0876 44.3217 57.7979 44.3461 57.4965C44.3706 57.1952 44.3291 56.8917 44.2254 56.6131C43.9515 55.8797 43.6776 55.0914 43.4681 54.4131C43.1781 53.4414 42.9526 52.5797 42.7754 51.7547C44.5547 50.6616 46.1876 49.285 47.6248 47.6664C49.2301 47.8872 50.8529 47.8872 52.4581 47.6664C52.7367 47.6185 52.9992 47.4883 53.2197 47.2889C53.4402 47.0894 53.6109 46.8277 53.7148 46.5297L57.3559 35.8781C57.4584 35.5994 57.4987 35.2963 57.4734 34.9957C57.4481 34.695 57.358 34.4062 57.2109 34.1547ZM51.1209 44.1281C49.8561 44.21 48.5873 44.1424 47.3348 43.9264C45.9085 43.6522 44.5315 43.1134 43.2587 42.3314C42.8817 42.1187 42.4466 42.0823 42.0464 42.2298C41.6461 42.3774 41.3125 42.6973 41.1168 43.1212C40.9211 43.545 40.8788 44.0391 40.9991 44.498C41.1194 44.9568 41.3926 45.3438 41.7604 45.5764C42.4337 45.9781 43.1277 46.3332 43.8387 46.6397C42.9602 47.4933 41.9847 48.2086 40.9387 48.7664L39.2309 49.6464C39.2309 49.6464 40.0204 53.6614 40.552 55.4397H36.7176C36.3309 54.8164 34.3815 51.1131 34.3815 51.1131L33.302 51.2781C31.0346 51.6501 28.7371 51.7239 26.4548 51.4981C25.3915 51.3881 23.6193 51.1314 22.2337 50.8564L19.7365 50.3614C19.7365 50.3614 20.7515 54.8164 20.9448 55.3847H16.7881C15.0902 53.0189 13.6511 50.4272 12.5026 47.6664L12.2126 46.9514C10.1193 42.3661 9.23528 37.1901 9.66703 32.0464C10.537 22.5314 19.527 15.3447 29.3065 16.3897C32.1513 16.7526 34.92 17.6705 37.4909 19.1031L38.4898 19.6347L39.2954 18.7731C40.5499 17.4974 41.9678 16.4465 43.5004 15.6564C45.528 14.6556 47.743 14.2461 49.9448 14.4647L44.4993 24.1631L44.902 25.0797C46.3091 28.3048 48.1039 31.2912 50.2348 33.9531C51.2245 35.0538 52.3965 35.92 53.6826 36.5014L51.1209 44.1281Z" fill="white"/>
</g>
<defs>
<clipPath id="clip0_15_203">
<rect width="58" height="66" fill="white"/>
</clipPath>
</defs>
</svg>
