<svg width="343" height="223" viewBox="0 0 343 223" fill="none" xmlns="http://www.w3.org/2000/svg">
<path d="M44.224 212.192C44.224 212.587 44.168 212.96 44.056 213.312C43.944 213.664 43.784 213.973 43.576 214.24C43.3733 214.501 43.1253 214.709 42.832 214.864C42.5387 215.019 42.2133 215.096 41.856 215.096C41.4933 215.096 41.1653 215.021 40.872 214.872C40.584 214.717 40.336 214.509 40.128 214.248C39.9253 213.981 39.768 213.675 39.656 213.328C39.5493 212.976 39.496 212.603 39.496 212.208C39.496 211.813 39.552 211.44 39.664 211.088C39.776 210.736 39.9333 210.429 40.136 210.168C40.344 209.901 40.5947 209.691 40.888 209.536C41.1813 209.381 41.5093 209.304 41.872 209.304C42.2293 209.304 42.552 209.381 42.84 209.536C43.1333 209.685 43.3813 209.893 43.584 210.16C43.792 210.421 43.9493 210.728 44.056 211.08C44.168 211.427 44.224 211.797 44.224 212.192ZM43.568 212.208C43.568 211.899 43.528 211.605 43.448 211.328C43.368 211.045 43.2533 210.797 43.104 210.584C42.9547 210.371 42.7733 210.2 42.56 210.072C42.352 209.944 42.1173 209.88 41.856 209.88C41.5947 209.88 41.3573 209.944 41.144 210.072C40.936 210.195 40.7573 210.363 40.608 210.576C40.464 210.784 40.352 211.029 40.272 211.312C40.192 211.589 40.152 211.883 40.152 212.192C40.152 212.501 40.192 212.797 40.272 213.08C40.352 213.363 40.4667 213.611 40.616 213.824C40.7653 214.037 40.9467 214.208 41.16 214.336C41.3733 214.459 41.6107 214.52 41.872 214.52C42.1333 214.52 42.368 214.459 42.576 214.336C42.7893 214.208 42.968 214.04 43.112 213.832C43.2613 213.619 43.3733 213.373 43.448 213.096C43.528 212.813 43.568 212.517 43.568 212.208Z" fill="white"/>
<path d="M63.456 209.888C63.136 209.888 62.8613 209.971 62.632 210.136C62.4027 210.296 62.176 210.533 61.952 210.848L61.488 210.512C61.616 210.325 61.7467 210.157 61.88 210.008C62.0133 209.859 62.1573 209.733 62.312 209.632C62.472 209.531 62.648 209.453 62.84 209.4C63.0373 209.347 63.2587 209.32 63.504 209.32C63.76 209.32 63.992 209.36 64.2 209.44C64.4133 209.52 64.5973 209.632 64.752 209.776C64.9067 209.915 65.0267 210.083 65.112 210.28C65.1973 210.472 65.24 210.683 65.24 210.912C65.24 211.12 65.2107 211.309 65.152 211.48C65.0987 211.651 65.0133 211.821 64.896 211.992C64.7787 212.157 64.632 212.331 64.456 212.512C64.28 212.688 64.0693 212.883 63.824 213.096L62.328 214.424H65.296V215H61.384V214.512L63.416 212.72C63.6293 212.528 63.8107 212.355 63.96 212.2C64.1093 212.045 64.2293 211.901 64.32 211.768C64.416 211.629 64.4827 211.496 64.52 211.368C64.5627 211.235 64.584 211.099 64.584 210.96C64.584 210.795 64.552 210.648 64.488 210.52C64.4293 210.387 64.3493 210.275 64.248 210.184C64.1467 210.088 64.0267 210.016 63.888 209.968C63.7493 209.915 63.6053 209.888 63.456 209.888Z" fill="white"/>
<path d="M85.512 209.36H86.064V213.144H86.936V213.672H86.064V215H85.456V213.672H82.504L82.344 213.216L85.512 209.36ZM85.456 213.144V210.256L83.104 213.144H85.456Z" fill="white"/>
<path d="M108.472 209.944L108.104 210.432C107.896 210.256 107.688 210.12 107.48 210.024C107.272 209.928 107.04 209.88 106.784 209.88C106.528 209.88 106.299 209.941 106.096 210.064C105.893 210.187 105.72 210.357 105.576 210.576C105.437 210.795 105.331 211.056 105.256 211.36C105.181 211.659 105.144 211.989 105.144 212.352C105.219 212.24 105.304 212.133 105.4 212.032C105.501 211.925 105.616 211.835 105.744 211.76C105.877 211.68 106.024 211.616 106.184 211.568C106.349 211.52 106.533 211.496 106.736 211.496C106.997 211.496 107.245 211.536 107.48 211.616C107.715 211.696 107.92 211.813 108.096 211.968C108.272 212.117 108.411 212.299 108.512 212.512C108.619 212.725 108.672 212.963 108.672 213.224C108.672 213.496 108.619 213.747 108.512 213.976C108.411 214.205 108.269 214.403 108.088 214.568C107.912 214.733 107.701 214.864 107.456 214.96C107.211 215.051 106.947 215.096 106.664 215.096C106.355 215.096 106.075 215.045 105.824 214.944C105.579 214.843 105.368 214.704 105.192 214.528C105.08 214.416 104.979 214.293 104.888 214.16C104.803 214.027 104.731 213.875 104.672 213.704C104.613 213.533 104.568 213.339 104.536 213.12C104.504 212.896 104.488 212.64 104.488 212.352C104.488 211.925 104.539 211.528 104.64 211.16C104.747 210.787 104.899 210.464 105.096 210.192C105.299 209.915 105.544 209.699 105.832 209.544C106.12 209.384 106.448 209.304 106.816 209.304C107.152 209.304 107.451 209.36 107.712 209.472C107.973 209.584 108.227 209.741 108.472 209.944ZM108.024 213.248C108.024 213.072 107.989 212.912 107.92 212.768C107.856 212.619 107.763 212.491 107.64 212.384C107.523 212.277 107.379 212.195 107.208 212.136C107.043 212.072 106.859 212.04 106.656 212.04C106.448 212.04 106.256 212.075 106.08 212.144C105.909 212.213 105.763 212.307 105.64 212.424C105.517 212.536 105.421 212.667 105.352 212.816C105.288 212.96 105.256 213.112 105.256 213.272C105.256 213.453 105.291 213.621 105.36 213.776C105.429 213.931 105.525 214.064 105.648 214.176C105.776 214.288 105.925 214.376 106.096 214.44C106.272 214.504 106.464 214.536 106.672 214.536C106.88 214.536 107.067 214.504 107.232 214.44C107.397 214.371 107.539 214.28 107.656 214.168C107.773 214.051 107.864 213.915 107.928 213.76C107.992 213.6 108.024 213.429 108.024 213.248Z" fill="white"/>
<path d="M130.624 213.48C130.624 213.72 130.571 213.939 130.464 214.136C130.357 214.333 130.208 214.501 130.016 214.64C129.829 214.779 129.608 214.888 129.352 214.968C129.096 215.043 128.819 215.08 128.52 215.08C128.221 215.08 127.944 215.043 127.688 214.968C127.432 214.888 127.208 214.779 127.016 214.64C126.829 214.501 126.683 214.333 126.576 214.136C126.469 213.939 126.416 213.723 126.416 213.488C126.416 213.152 126.523 212.869 126.736 212.64C126.955 212.405 127.232 212.227 127.568 212.104C127.44 212.045 127.317 211.976 127.2 211.896C127.083 211.811 126.979 211.717 126.888 211.616C126.803 211.509 126.733 211.389 126.68 211.256C126.632 211.123 126.608 210.973 126.608 210.808C126.608 210.589 126.659 210.389 126.76 210.208C126.867 210.027 127.005 209.869 127.176 209.736C127.352 209.603 127.555 209.501 127.784 209.432C128.019 209.357 128.264 209.32 128.52 209.32C128.776 209.32 129.019 209.357 129.248 209.432C129.483 209.501 129.685 209.603 129.856 209.736C130.032 209.869 130.171 210.027 130.272 210.208C130.379 210.389 130.432 210.589 130.432 210.808C130.432 210.973 130.405 211.123 130.352 211.256C130.304 211.389 130.235 211.509 130.144 211.616C130.059 211.717 129.957 211.811 129.84 211.896C129.723 211.976 129.6 212.045 129.472 212.104C129.808 212.227 130.083 212.403 130.296 212.632C130.515 212.861 130.624 213.144 130.624 213.48ZM129.8 210.848C129.8 210.709 129.768 210.581 129.704 210.464C129.64 210.341 129.549 210.237 129.432 210.152C129.32 210.061 129.184 209.992 129.024 209.944C128.869 209.896 128.701 209.872 128.52 209.872C128.339 209.872 128.168 209.896 128.008 209.944C127.853 209.992 127.717 210.061 127.6 210.152C127.488 210.237 127.4 210.339 127.336 210.456C127.272 210.573 127.24 210.704 127.24 210.848C127.24 211.003 127.272 211.144 127.336 211.272C127.405 211.395 127.496 211.501 127.608 211.592C127.725 211.683 127.861 211.755 128.016 211.808C128.176 211.856 128.344 211.88 128.52 211.88C128.696 211.88 128.861 211.856 129.016 211.808C129.176 211.755 129.312 211.683 129.424 211.592C129.541 211.501 129.632 211.395 129.696 211.272C129.765 211.144 129.8 211.003 129.8 210.848ZM129.984 213.472C129.984 213.312 129.944 213.168 129.864 213.04C129.789 212.907 129.685 212.795 129.552 212.704C129.424 212.608 129.269 212.533 129.088 212.48C128.912 212.427 128.723 212.4 128.52 212.4C128.317 212.4 128.125 212.427 127.944 212.48C127.768 212.533 127.613 212.608 127.48 212.704C127.347 212.795 127.243 212.907 127.168 213.04C127.093 213.168 127.056 213.312 127.056 213.472C127.056 213.616 127.088 213.752 127.152 213.88C127.221 214.008 127.317 214.12 127.44 214.216C127.568 214.312 127.723 214.389 127.904 214.448C128.085 214.501 128.291 214.528 128.52 214.528C128.749 214.528 128.955 214.501 129.136 214.448C129.317 214.389 129.469 214.312 129.592 214.216C129.72 214.12 129.816 214.008 129.88 213.88C129.949 213.752 129.984 213.616 129.984 213.472Z" fill="white"/>
<path d="M148.224 209.832L149.592 209.36H150.056V215H149.432V210.016L148.376 210.344L148.224 209.832ZM156.091 212.192C156.091 212.587 156.035 212.96 155.923 213.312C155.811 213.664 155.651 213.973 155.443 214.24C155.241 214.501 154.993 214.709 154.699 214.864C154.406 215.019 154.081 215.096 153.723 215.096C153.361 215.096 153.033 215.021 152.739 214.872C152.451 214.717 152.203 214.509 151.995 214.248C151.793 213.981 151.635 213.675 151.523 213.328C151.417 212.976 151.363 212.603 151.363 212.208C151.363 211.813 151.419 211.44 151.531 211.088C151.643 210.736 151.801 210.429 152.003 210.168C152.211 209.901 152.462 209.691 152.755 209.536C153.049 209.381 153.377 209.304 153.739 209.304C154.097 209.304 154.419 209.381 154.707 209.536C155.001 209.685 155.249 209.893 155.451 210.16C155.659 210.421 155.817 210.728 155.923 211.08C156.035 211.427 156.091 211.797 156.091 212.192ZM155.435 212.208C155.435 211.899 155.395 211.605 155.315 211.328C155.235 211.045 155.121 210.797 154.971 210.584C154.822 210.371 154.641 210.2 154.427 210.072C154.219 209.944 153.985 209.88 153.723 209.88C153.462 209.88 153.225 209.944 153.011 210.072C152.803 210.195 152.625 210.363 152.475 210.576C152.331 210.784 152.219 211.029 152.139 211.312C152.059 211.589 152.019 211.883 152.019 212.192C152.019 212.501 152.059 212.797 152.139 213.08C152.219 213.363 152.334 213.611 152.483 213.824C152.633 214.037 152.814 214.208 153.027 214.336C153.241 214.459 153.478 214.52 153.739 214.52C154.001 214.52 154.235 214.459 154.443 214.336C154.657 214.208 154.835 214.04 154.979 213.832C155.129 213.619 155.241 213.373 155.315 213.096C155.395 212.813 155.435 212.517 155.435 212.208Z" fill="white"/>
<path d="M173.224 209.832L174.592 209.36H175.056V215H174.432V210.016L173.376 210.344L173.224 209.832ZM178.323 209.888C178.003 209.888 177.729 209.971 177.499 210.136C177.27 210.296 177.043 210.533 176.819 210.848L176.355 210.512C176.483 210.325 176.614 210.157 176.747 210.008C176.881 209.859 177.025 209.733 177.179 209.632C177.339 209.531 177.515 209.453 177.707 209.4C177.905 209.347 178.126 209.32 178.371 209.32C178.627 209.32 178.859 209.36 179.067 209.44C179.281 209.52 179.465 209.632 179.619 209.776C179.774 209.915 179.894 210.083 179.979 210.28C180.065 210.472 180.107 210.683 180.107 210.912C180.107 211.12 180.078 211.309 180.019 211.48C179.966 211.651 179.881 211.821 179.763 211.992C179.646 212.157 179.499 212.331 179.323 212.512C179.147 212.688 178.937 212.883 178.691 213.096L177.195 214.424H180.163V215H176.251V214.512L178.283 212.72C178.497 212.528 178.678 212.355 178.827 212.2C178.977 212.045 179.097 211.901 179.187 211.768C179.283 211.629 179.35 211.496 179.387 211.368C179.43 211.235 179.451 211.099 179.451 210.96C179.451 210.795 179.419 210.648 179.355 210.52C179.297 210.387 179.217 210.275 179.115 210.184C179.014 210.088 178.894 210.016 178.755 209.968C178.617 209.915 178.473 209.888 178.323 209.888Z" fill="white"/>
<path d="M197.224 209.832L198.592 209.36H199.056V215H198.432V210.016L197.376 210.344L197.224 209.832ZM203.379 209.36H203.931V213.144H204.803V213.672H203.931V215H203.323V213.672H200.371L200.211 213.216L203.379 209.36ZM203.323 213.144V210.256L200.971 213.144H203.323Z" fill="white"/>
<path d="M222.224 209.832L223.592 209.36H224.056V215H223.432V210.016L222.376 210.344L222.224 209.832ZM229.339 209.944L228.971 210.432C228.763 210.256 228.555 210.12 228.347 210.024C228.139 209.928 227.907 209.88 227.651 209.88C227.395 209.88 227.166 209.941 226.963 210.064C226.761 210.187 226.587 210.357 226.443 210.576C226.305 210.795 226.198 211.056 226.123 211.36C226.049 211.659 226.011 211.989 226.011 212.352C226.086 212.24 226.171 212.133 226.267 212.032C226.369 211.925 226.483 211.835 226.611 211.76C226.745 211.68 226.891 211.616 227.051 211.568C227.217 211.52 227.401 211.496 227.603 211.496C227.865 211.496 228.113 211.536 228.347 211.616C228.582 211.696 228.787 211.813 228.963 211.968C229.139 212.117 229.278 212.299 229.379 212.512C229.486 212.725 229.539 212.963 229.539 213.224C229.539 213.496 229.486 213.747 229.379 213.976C229.278 214.205 229.137 214.403 228.955 214.568C228.779 214.733 228.569 214.864 228.323 214.96C228.078 215.051 227.814 215.096 227.531 215.096C227.222 215.096 226.942 215.045 226.691 214.944C226.446 214.843 226.235 214.704 226.059 214.528C225.947 214.416 225.846 214.293 225.755 214.16C225.67 214.027 225.598 213.875 225.539 213.704C225.481 213.533 225.435 213.339 225.403 213.12C225.371 212.896 225.355 212.64 225.355 212.352C225.355 211.925 225.406 211.528 225.507 211.16C225.614 210.787 225.766 210.464 225.963 210.192C226.166 209.915 226.411 209.699 226.699 209.544C226.987 209.384 227.315 209.304 227.683 209.304C228.019 209.304 228.318 209.36 228.579 209.472C228.841 209.584 229.094 209.741 229.339 209.944ZM228.891 213.248C228.891 213.072 228.857 212.912 228.787 212.768C228.723 212.619 228.63 212.491 228.507 212.384C228.39 212.277 228.246 212.195 228.075 212.136C227.91 212.072 227.726 212.04 227.523 212.04C227.315 212.04 227.123 212.075 226.947 212.144C226.777 212.213 226.63 212.307 226.507 212.424C226.385 212.536 226.289 212.667 226.219 212.816C226.155 212.96 226.123 213.112 226.123 213.272C226.123 213.453 226.158 213.621 226.227 213.776C226.297 213.931 226.393 214.064 226.515 214.176C226.643 214.288 226.793 214.376 226.963 214.44C227.139 214.504 227.331 214.536 227.539 214.536C227.747 214.536 227.934 214.504 228.099 214.44C228.265 214.371 228.406 214.28 228.523 214.168C228.641 214.051 228.731 213.915 228.795 213.76C228.859 213.6 228.891 213.429 228.891 213.248Z" fill="white"/>
<path d="M247.224 209.832L248.592 209.36H249.056V215H248.432V210.016L247.376 210.344L247.224 209.832ZM254.491 213.48C254.491 213.72 254.438 213.939 254.331 214.136C254.225 214.333 254.075 214.501 253.883 214.64C253.697 214.779 253.475 214.888 253.219 214.968C252.963 215.043 252.686 215.08 252.387 215.08C252.089 215.08 251.811 215.043 251.555 214.968C251.299 214.888 251.075 214.779 250.883 214.64C250.697 214.501 250.55 214.333 250.443 214.136C250.337 213.939 250.283 213.723 250.283 213.488C250.283 213.152 250.39 212.869 250.603 212.64C250.822 212.405 251.099 212.227 251.435 212.104C251.307 212.045 251.185 211.976 251.067 211.896C250.95 211.811 250.846 211.717 250.755 211.616C250.67 211.509 250.601 211.389 250.547 211.256C250.499 211.123 250.475 210.973 250.475 210.808C250.475 210.589 250.526 210.389 250.627 210.208C250.734 210.027 250.873 209.869 251.043 209.736C251.219 209.603 251.422 209.501 251.651 209.432C251.886 209.357 252.131 209.32 252.387 209.32C252.643 209.32 252.886 209.357 253.115 209.432C253.35 209.501 253.553 209.603 253.723 209.736C253.899 209.869 254.038 210.027 254.139 210.208C254.246 210.389 254.299 210.589 254.299 210.808C254.299 210.973 254.273 211.123 254.219 211.256C254.171 211.389 254.102 211.509 254.011 211.616C253.926 211.717 253.825 211.811 253.707 211.896C253.59 211.976 253.467 212.045 253.339 212.104C253.675 212.227 253.95 212.403 254.163 212.632C254.382 212.861 254.491 213.144 254.491 213.48ZM253.667 210.848C253.667 210.709 253.635 210.581 253.571 210.464C253.507 210.341 253.417 210.237 253.299 210.152C253.187 210.061 253.051 209.992 252.891 209.944C252.737 209.896 252.569 209.872 252.387 209.872C252.206 209.872 252.035 209.896 251.875 209.944C251.721 209.992 251.585 210.061 251.467 210.152C251.355 210.237 251.267 210.339 251.203 210.456C251.139 210.573 251.107 210.704 251.107 210.848C251.107 211.003 251.139 211.144 251.203 211.272C251.273 211.395 251.363 211.501 251.475 211.592C251.593 211.683 251.729 211.755 251.883 211.808C252.043 211.856 252.211 211.88 252.387 211.88C252.563 211.88 252.729 211.856 252.883 211.808C253.043 211.755 253.179 211.683 253.291 211.592C253.409 211.501 253.499 211.395 253.563 211.272C253.633 211.144 253.667 211.003 253.667 210.848ZM253.851 213.472C253.851 213.312 253.811 213.168 253.731 213.04C253.657 212.907 253.553 212.795 253.419 212.704C253.291 212.608 253.137 212.533 252.955 212.48C252.779 212.427 252.59 212.4 252.387 212.4C252.185 212.4 251.993 212.427 251.811 212.48C251.635 212.533 251.481 212.608 251.347 212.704C251.214 212.795 251.11 212.907 251.035 213.04C250.961 213.168 250.923 213.312 250.923 213.472C250.923 213.616 250.955 213.752 251.019 213.88C251.089 214.008 251.185 214.12 251.307 214.216C251.435 214.312 251.59 214.389 251.771 214.448C251.953 214.501 252.158 214.528 252.387 214.528C252.617 214.528 252.822 214.501 253.003 214.448C253.185 214.389 253.337 214.312 253.459 214.216C253.587 214.12 253.683 214.008 253.747 213.88C253.817 213.752 253.851 213.616 253.851 213.472Z" fill="white"/>
<path d="M273.456 209.888C273.136 209.888 272.861 209.971 272.632 210.136C272.403 210.296 272.176 210.533 271.952 210.848L271.488 210.512C271.616 210.325 271.747 210.157 271.88 210.008C272.013 209.859 272.157 209.733 272.312 209.632C272.472 209.531 272.648 209.453 272.84 209.4C273.037 209.347 273.259 209.32 273.504 209.32C273.76 209.32 273.992 209.36 274.2 209.44C274.413 209.52 274.597 209.632 274.752 209.776C274.907 209.915 275.027 210.083 275.112 210.28C275.197 210.472 275.24 210.683 275.24 210.912C275.24 211.12 275.211 211.309 275.152 211.48C275.099 211.651 275.013 211.821 274.896 211.992C274.779 212.157 274.632 212.331 274.456 212.512C274.28 212.688 274.069 212.883 273.824 213.096L272.328 214.424H275.296V215H271.384V214.512L273.416 212.72C273.629 212.528 273.811 212.355 273.96 212.2C274.109 212.045 274.229 211.901 274.32 211.768C274.416 211.629 274.483 211.496 274.52 211.368C274.563 211.235 274.584 211.099 274.584 210.96C274.584 210.795 274.552 210.648 274.488 210.52C274.429 210.387 274.349 210.275 274.248 210.184C274.147 210.088 274.027 210.016 273.888 209.968C273.749 209.915 273.605 209.888 273.456 209.888ZM281.013 212.192C281.013 212.587 280.957 212.96 280.845 213.312C280.733 213.664 280.573 213.973 280.365 214.24C280.162 214.501 279.914 214.709 279.621 214.864C279.328 215.019 279.002 215.096 278.645 215.096C278.282 215.096 277.954 215.021 277.661 214.872C277.373 214.717 277.125 214.509 276.917 214.248C276.714 213.981 276.557 213.675 276.445 213.328C276.338 212.976 276.285 212.603 276.285 212.208C276.285 211.813 276.341 211.44 276.453 211.088C276.565 210.736 276.722 210.429 276.925 210.168C277.133 209.901 277.384 209.691 277.677 209.536C277.97 209.381 278.298 209.304 278.661 209.304C279.018 209.304 279.341 209.381 279.629 209.536C279.922 209.685 280.17 209.893 280.373 210.16C280.581 210.421 280.738 210.728 280.845 211.08C280.957 211.427 281.013 211.797 281.013 212.192ZM280.357 212.208C280.357 211.899 280.317 211.605 280.237 211.328C280.157 211.045 280.042 210.797 279.893 210.584C279.744 210.371 279.562 210.2 279.349 210.072C279.141 209.944 278.906 209.88 278.645 209.88C278.384 209.88 278.146 209.944 277.933 210.072C277.725 210.195 277.546 210.363 277.397 210.576C277.253 210.784 277.141 211.029 277.061 211.312C276.981 211.589 276.941 211.883 276.941 212.192C276.941 212.501 276.981 212.797 277.061 213.08C277.141 213.363 277.256 213.611 277.405 213.824C277.554 214.037 277.736 214.208 277.949 214.336C278.162 214.459 278.4 214.52 278.661 214.52C278.922 214.52 279.157 214.459 279.365 214.336C279.578 214.208 279.757 214.04 279.901 213.832C280.05 213.619 280.162 213.373 280.237 213.096C280.317 212.813 280.357 212.517 280.357 212.208Z" fill="white"/>
<path d="M300.456 209.888C300.136 209.888 299.861 209.971 299.632 210.136C299.403 210.296 299.176 210.533 298.952 210.848L298.488 210.512C298.616 210.325 298.747 210.157 298.88 210.008C299.013 209.859 299.157 209.733 299.312 209.632C299.472 209.531 299.648 209.453 299.84 209.4C300.037 209.347 300.259 209.32 300.504 209.32C300.76 209.32 300.992 209.36 301.2 209.44C301.413 209.52 301.597 209.632 301.752 209.776C301.907 209.915 302.027 210.083 302.112 210.28C302.197 210.472 302.24 210.683 302.24 210.912C302.24 211.12 302.211 211.309 302.152 211.48C302.099 211.651 302.013 211.821 301.896 211.992C301.779 212.157 301.632 212.331 301.456 212.512C301.28 212.688 301.069 212.883 300.824 213.096L299.328 214.424H302.296V215H298.384V214.512L300.416 212.72C300.629 212.528 300.811 212.355 300.96 212.2C301.109 212.045 301.229 211.901 301.32 211.768C301.416 211.629 301.483 211.496 301.52 211.368C301.563 211.235 301.584 211.099 301.584 210.96C301.584 210.795 301.552 210.648 301.488 210.52C301.429 210.387 301.349 210.275 301.248 210.184C301.147 210.088 301.027 210.016 300.888 209.968C300.749 209.915 300.605 209.888 300.456 209.888ZM305.245 209.888C304.925 209.888 304.65 209.971 304.421 210.136C304.192 210.296 303.965 210.533 303.741 210.848L303.277 210.512C303.405 210.325 303.536 210.157 303.669 210.008C303.802 209.859 303.946 209.733 304.101 209.632C304.261 209.531 304.437 209.453 304.629 209.4C304.826 209.347 305.048 209.32 305.293 209.32C305.549 209.32 305.781 209.36 305.989 209.44C306.202 209.52 306.386 209.632 306.541 209.776C306.696 209.915 306.816 210.083 306.901 210.28C306.986 210.472 307.029 210.683 307.029 210.912C307.029 211.12 307 211.309 306.941 211.48C306.888 211.651 306.802 211.821 306.685 211.992C306.568 212.157 306.421 212.331 306.245 212.512C306.069 212.688 305.858 212.883 305.613 213.096L304.117 214.424H307.085V215H303.173V214.512L305.205 212.72C305.418 212.528 305.6 212.355 305.749 212.2C305.898 212.045 306.018 211.901 306.109 211.768C306.205 211.629 306.272 211.496 306.309 211.368C306.352 211.235 306.373 211.099 306.373 210.96C306.373 210.795 306.341 210.648 306.277 210.52C306.218 210.387 306.138 210.275 306.037 210.184C305.936 210.088 305.816 210.016 305.677 209.968C305.538 209.915 305.394 209.888 305.245 209.888Z" fill="white"/>
<path d="M326.456 209.888C326.136 209.888 325.861 209.971 325.632 210.136C325.403 210.296 325.176 210.533 324.952 210.848L324.488 210.512C324.616 210.325 324.747 210.157 324.88 210.008C325.013 209.859 325.157 209.733 325.312 209.632C325.472 209.531 325.648 209.453 325.84 209.4C326.037 209.347 326.259 209.32 326.504 209.32C326.76 209.32 326.992 209.36 327.2 209.44C327.413 209.52 327.597 209.632 327.752 209.776C327.907 209.915 328.027 210.083 328.112 210.28C328.197 210.472 328.24 210.683 328.24 210.912C328.24 211.12 328.211 211.309 328.152 211.48C328.099 211.651 328.013 211.821 327.896 211.992C327.779 212.157 327.632 212.331 327.456 212.512C327.28 212.688 327.069 212.883 326.824 213.096L325.328 214.424H328.296V215H324.384V214.512L326.416 212.72C326.629 212.528 326.811 212.355 326.96 212.2C327.109 212.045 327.229 211.901 327.32 211.768C327.416 211.629 327.483 211.496 327.52 211.368C327.563 211.235 327.584 211.099 327.584 210.96C327.584 210.795 327.552 210.648 327.488 210.52C327.429 210.387 327.349 210.275 327.248 210.184C327.147 210.088 327.027 210.016 326.888 209.968C326.749 209.915 326.605 209.888 326.456 209.888ZM332.09 209.36H332.642V213.144H333.514V213.672H332.642V215H332.034V213.672H329.082L328.922 213.216L332.09 209.36ZM332.034 213.144V210.256L329.682 213.144H332.034Z" fill="white"/>
<path d="M4.696 12H3.304L2.184 10.248L1.76 10.696V12H0.544V6.16H1.76V9.272L3.184 7.712H4.64L3.008 9.4L4.696 12ZM13.4704 6.4L11.5584 12.04H10.4864L9.22238 8.376L7.95838 12.04H6.88638L4.97438 6.4H6.29438L7.45438 10.192L8.71038 6.384H9.76638L11.0224 10.192L12.1824 6.4H13.4704ZM18.1829 12H16.9669V9.608C16.9669 9.32 16.9029 9.104 16.7749 8.96C16.6469 8.81067 16.4656 8.736 16.2309 8.736C15.9963 8.736 15.8096 8.81067 15.6709 8.96C15.5376 9.104 15.4709 9.32 15.4709 9.608V12H14.2549V6.16H15.4709V8.32C15.5403 8.22933 15.6149 8.144 15.6949 8.064C15.7803 7.97867 15.8736 7.904 15.9749 7.84C16.0763 7.776 16.1883 7.72533 16.3109 7.688C16.4336 7.65067 16.5723 7.632 16.7269 7.632C17.1909 7.632 17.5483 7.77333 17.7989 8.056C18.0549 8.33867 18.1829 8.728 18.1829 9.224V12Z" fill="#D9DDFF"/>
<path d="M26.044 14.976V14.4H29.844V14.872L27.3 20H26.596L29.124 14.976H26.044Z" fill="white"/>
<path d="M29.472 42.944L29.104 43.432C28.896 43.256 28.688 43.12 28.48 43.024C28.272 42.928 28.04 42.88 27.784 42.88C27.528 42.88 27.2987 42.9413 27.096 43.064C26.8933 43.1867 26.72 43.3573 26.576 43.576C26.4373 43.7947 26.3307 44.056 26.256 44.36C26.1813 44.6587 26.144 44.9893 26.144 45.352C26.2187 45.24 26.304 45.1333 26.4 45.032C26.5013 44.9253 26.616 44.8347 26.744 44.76C26.8773 44.68 27.024 44.616 27.184 44.568C27.3493 44.52 27.5333 44.496 27.736 44.496C27.9973 44.496 28.2453 44.536 28.48 44.616C28.7147 44.696 28.92 44.8133 29.096 44.968C29.272 45.1173 29.4107 45.2987 29.512 45.512C29.6187 45.7253 29.672 45.9627 29.672 46.224C29.672 46.496 29.6187 46.7467 29.512 46.976C29.4107 47.2053 29.2693 47.4027 29.088 47.568C28.912 47.7333 28.7013 47.864 28.456 47.96C28.2107 48.0507 27.9467 48.096 27.664 48.096C27.3547 48.096 27.0747 48.0453 26.824 47.944C26.5787 47.8427 26.368 47.704 26.192 47.528C26.08 47.416 25.9787 47.2933 25.888 47.16C25.8027 47.0267 25.7307 46.8747 25.672 46.704C25.6133 46.5333 25.568 46.3387 25.536 46.12C25.504 45.896 25.488 45.64 25.488 45.352C25.488 44.9253 25.5387 44.528 25.64 44.16C25.7467 43.7867 25.8987 43.464 26.096 43.192C26.2987 42.9147 26.544 42.6987 26.832 42.544C27.12 42.384 27.448 42.304 27.816 42.304C28.152 42.304 28.4507 42.36 28.712 42.472C28.9733 42.584 29.2267 42.7413 29.472 42.944ZM29.024 46.248C29.024 46.072 28.9893 45.912 28.92 45.768C28.856 45.6187 28.7627 45.4907 28.64 45.384C28.5227 45.2773 28.3787 45.1947 28.208 45.136C28.0427 45.072 27.8587 45.04 27.656 45.04C27.448 45.04 27.256 45.0747 27.08 45.144C26.9093 45.2133 26.7627 45.3067 26.64 45.424C26.5173 45.536 26.4213 45.6667 26.352 45.816C26.288 45.96 26.256 46.112 26.256 46.272C26.256 46.4533 26.2907 46.6213 26.36 46.776C26.4293 46.9307 26.5253 47.064 26.648 47.176C26.776 47.288 26.9253 47.376 27.096 47.44C27.272 47.504 27.464 47.536 27.672 47.536C27.88 47.536 28.0667 47.504 28.232 47.44C28.3973 47.3707 28.5387 47.28 28.656 47.168C28.7733 47.0507 28.864 46.9147 28.928 46.76C28.992 46.6 29.024 46.4293 29.024 46.248Z" fill="white"/>
<path d="M26.292 73.128L26.452 70.4H29.676V70.984H27.004L26.884 72.776C27.0493 72.7013 27.2147 72.6427 27.38 72.6C27.5507 72.552 27.7533 72.528 27.988 72.528C28.26 72.528 28.5133 72.568 28.748 72.648C28.9827 72.728 29.188 72.8427 29.364 72.992C29.54 73.136 29.676 73.3147 29.772 73.528C29.8733 73.7413 29.924 73.9813 29.924 74.248C29.924 74.5253 29.8733 74.7787 29.772 75.008C29.676 75.232 29.54 75.4267 29.364 75.592C29.188 75.752 28.9773 75.8773 28.732 75.968C28.4867 76.0533 28.2173 76.096 27.924 76.096C27.524 76.096 27.1533 76.0133 26.812 75.848C26.476 75.6773 26.18 75.464 25.924 75.208L26.34 74.752C26.5853 74.992 26.8387 75.1813 27.1 75.32C27.3667 75.4533 27.644 75.52 27.932 75.52C28.1293 75.52 28.3107 75.4907 28.476 75.432C28.6467 75.368 28.7907 75.28 28.908 75.168C29.0253 75.056 29.116 74.9253 29.18 74.776C29.2493 74.6213 29.284 74.4533 29.284 74.272C29.284 74.096 29.2493 73.936 29.18 73.792C29.116 73.648 29.0227 73.5253 28.9 73.424C28.7773 73.3173 28.6307 73.2347 28.46 73.176C28.2893 73.1173 28.1 73.088 27.892 73.088C27.652 73.088 27.436 73.12 27.244 73.184C27.0573 73.2427 26.8813 73.3173 26.716 73.408L26.292 73.128Z" fill="white"/>
<path d="M28.512 98.36H29.064V102.144H29.936V102.672H29.064V104H28.456V102.672H25.504L25.344 102.216L28.512 98.36ZM28.456 102.144V99.256L26.104 102.144H28.456Z" fill="white"/>
<path d="M28.932 126.968H26.196V126.4H29.772V126.864L28.012 128.816C28.2573 128.837 28.492 128.883 28.716 128.952C28.94 129.021 29.1347 129.12 29.3 129.248C29.4707 129.376 29.6067 129.536 29.708 129.728C29.8093 129.92 29.86 130.144 29.86 130.4C29.86 130.651 29.8093 130.88 29.708 131.088C29.612 131.296 29.4787 131.475 29.308 131.624C29.1427 131.773 28.9453 131.891 28.716 131.976C28.492 132.056 28.2493 132.096 27.988 132.096C27.5187 132.096 27.1107 132.005 26.764 131.824C26.4173 131.637 26.1293 131.395 25.9 131.096L26.356 130.688C26.5747 130.955 26.8147 131.16 27.076 131.304C27.3427 131.448 27.6493 131.52 27.996 131.52C28.1667 131.52 28.3267 131.496 28.476 131.448C28.6253 131.395 28.7533 131.32 28.86 131.224C28.972 131.128 29.06 131.013 29.124 130.88C29.188 130.741 29.22 130.589 29.22 130.424C29.22 130.072 29.0733 129.803 28.78 129.616C28.492 129.429 28.116 129.336 27.652 129.336H27.292L27.164 128.96L28.932 126.968Z" fill="white"/>
<path d="M27.956 154.888C27.636 154.888 27.3613 154.971 27.132 155.136C26.9027 155.296 26.676 155.533 26.452 155.848L25.988 155.512C26.116 155.325 26.2467 155.157 26.38 155.008C26.5133 154.859 26.6573 154.733 26.812 154.632C26.972 154.531 27.148 154.453 27.34 154.4C27.5373 154.347 27.7587 154.32 28.004 154.32C28.26 154.32 28.492 154.36 28.7 154.44C28.9133 154.52 29.0973 154.632 29.252 154.776C29.4067 154.915 29.5267 155.083 29.612 155.28C29.6973 155.472 29.74 155.683 29.74 155.912C29.74 156.12 29.7107 156.309 29.652 156.48C29.5987 156.651 29.5133 156.821 29.396 156.992C29.2787 157.157 29.132 157.331 28.956 157.512C28.78 157.688 28.5693 157.883 28.324 158.096L26.828 159.424H29.796V160H25.884V159.512L27.916 157.72C28.1293 157.528 28.3107 157.355 28.46 157.2C28.6093 157.045 28.7293 156.901 28.82 156.768C28.916 156.629 28.9827 156.496 29.02 156.368C29.0627 156.235 29.084 156.099 29.084 155.96C29.084 155.795 29.052 155.648 28.988 155.52C28.9293 155.387 28.8493 155.275 28.748 155.184C28.6467 155.088 28.5267 155.016 28.388 154.968C28.2493 154.915 28.1053 154.888 27.956 154.888Z" fill="white"/>
<path d="M26.724 182.832L28.092 182.36H28.556V188H27.932V183.016L26.876 183.344L26.724 182.832Z" fill="white"/>
<path d="M47.5 44.5L82.8097 51.8371C84.8829 52.2679 86.7659 53.3457 88.1873 54.9152L109.052 77.9534C109.681 78.6477 110.404 79.2502 111.201 79.7432L140.004 97.5739C140.994 98.1866 142.083 98.6218 143.222 98.8599L173.988 105.289C174.661 105.429 175.346 105.5 176.034 105.5H198.194C200.943 105.5 203.57 106.631 205.459 108.628L218.904 122.842C219.63 123.609 220.473 124.257 221.401 124.76L248.425 139.417C249.139 139.804 249.897 140.103 250.683 140.307L273.834 146.309C275.579 146.761 277.413 146.734 279.144 146.229L298.119 140.694C299.683 140.238 301.111 139.407 302.281 138.273L316.106 124.867C316.7 124.291 317.22 123.644 317.654 122.94L342 83.5" stroke="#FF48D8" stroke-width="1.5"/>
<circle cx="171" cy="10" r="5" fill="#F0FFFF"/>
<path d="M187.592 11.112C187.448 11.2613 187.296 11.3973 187.136 11.52C186.981 11.6373 186.813 11.7387 186.632 11.824C186.451 11.9093 186.256 11.976 186.048 12.024C185.84 12.072 185.608 12.096 185.352 12.096C184.947 12.096 184.573 12.0213 184.232 11.872C183.891 11.7227 183.595 11.52 183.344 11.264C183.093 11.0027 182.896 10.696 182.752 10.344C182.613 9.992 182.544 9.61333 182.544 9.208C182.544 8.808 182.613 8.432 182.752 8.08C182.896 7.728 183.093 7.42133 183.344 7.16C183.595 6.89333 183.893 6.68533 184.24 6.536C184.587 6.38133 184.965 6.304 185.376 6.304C185.632 6.304 185.861 6.32533 186.064 6.368C186.272 6.41067 186.464 6.472 186.64 6.552C186.816 6.62667 186.979 6.72 187.128 6.832C187.277 6.93867 187.421 7.05867 187.56 7.192L187.128 7.656C186.888 7.432 186.629 7.248 186.352 7.104C186.08 6.96 185.752 6.888 185.368 6.888C185.059 6.888 184.771 6.94667 184.504 7.064C184.243 7.18133 184.013 7.344 183.816 7.552C183.624 7.76 183.472 8.00533 183.36 8.288C183.253 8.56533 183.2 8.86667 183.2 9.192C183.2 9.51733 183.253 9.82133 183.36 10.104C183.472 10.3867 183.624 10.632 183.816 10.84C184.013 11.048 184.243 11.2133 184.504 11.336C184.771 11.4533 185.059 11.512 185.368 11.512C185.752 11.512 186.083 11.4427 186.36 11.304C186.637 11.16 186.909 10.96 187.176 10.704L187.592 11.112ZM191.53 10.232V7.864H192.138V12H191.53V11.28C191.392 11.504 191.21 11.696 190.986 11.856C190.762 12.0107 190.472 12.088 190.114 12.088C189.864 12.088 189.64 12.048 189.442 11.968C189.25 11.888 189.085 11.776 188.946 11.632C188.813 11.4827 188.709 11.3067 188.634 11.104C188.565 10.9013 188.53 10.6773 188.53 10.432V7.864H189.146V10.28C189.146 10.664 189.245 10.968 189.442 11.192C189.64 11.416 189.922 11.528 190.29 11.528C190.466 11.528 190.629 11.4987 190.778 11.44C190.933 11.376 191.064 11.288 191.17 11.176C191.282 11.0587 191.37 10.92 191.434 10.76C191.498 10.6 191.53 10.424 191.53 10.232ZM194.14 10.352V12H193.524V7.864H194.14V8.944C194.215 8.77333 194.308 8.616 194.42 8.472C194.532 8.328 194.66 8.20533 194.804 8.104C194.948 7.99733 195.105 7.91733 195.276 7.864C195.447 7.81067 195.631 7.78667 195.828 7.792V8.456H195.78C195.556 8.456 195.343 8.496 195.14 8.576C194.943 8.656 194.769 8.776 194.62 8.936C194.471 9.096 194.353 9.296 194.268 9.536C194.183 9.77067 194.14 10.0427 194.14 10.352ZM197.382 10.352V12H196.766V7.864H197.382V8.944C197.457 8.77333 197.55 8.616 197.662 8.472C197.774 8.328 197.902 8.20533 198.046 8.104C198.19 7.99733 198.347 7.91733 198.518 7.864C198.689 7.81067 198.873 7.78667 199.07 7.792V8.456H199.022C198.798 8.456 198.585 8.496 198.382 8.576C198.185 8.656 198.011 8.776 197.862 8.936C197.713 9.096 197.595 9.296 197.51 9.536C197.425 9.77067 197.382 10.0427 197.382 10.352ZM200.197 10.16C200.218 10.384 200.271 10.584 200.357 10.76C200.442 10.9307 200.551 11.0773 200.685 11.2C200.818 11.3173 200.967 11.408 201.133 11.472C201.298 11.5307 201.471 11.56 201.653 11.56C201.941 11.56 202.186 11.5067 202.389 11.4C202.597 11.2933 202.786 11.152 202.957 10.976L203.341 11.32C203.133 11.5547 202.895 11.744 202.629 11.888C202.362 12.0267 202.031 12.096 201.637 12.096C201.354 12.096 201.087 12.0453 200.837 11.944C200.586 11.8373 200.367 11.6907 200.181 11.504C199.994 11.312 199.845 11.0827 199.733 10.816C199.626 10.5493 199.573 10.256 199.573 9.936C199.573 9.63733 199.621 9.35733 199.717 9.096C199.818 8.82933 199.957 8.6 200.133 8.408C200.309 8.21067 200.517 8.056 200.757 7.944C201.002 7.832 201.269 7.776 201.557 7.776C201.861 7.776 202.133 7.83467 202.373 7.952C202.613 8.064 202.815 8.21867 202.981 8.416C203.146 8.61333 203.271 8.84533 203.357 9.112C203.442 9.37867 203.485 9.664 203.485 9.968C203.485 9.99467 203.485 10.024 203.485 10.056C203.485 10.088 203.482 10.1227 203.477 10.16H200.197ZM200.197 9.704H202.861C202.845 9.51733 202.805 9.33867 202.741 9.168C202.682 8.99733 202.597 8.848 202.485 8.72C202.378 8.592 202.245 8.49067 202.085 8.416C201.93 8.336 201.749 8.296 201.541 8.296C201.359 8.296 201.191 8.33333 201.037 8.408C200.882 8.47733 200.746 8.576 200.629 8.704C200.511 8.82667 200.415 8.97333 200.341 9.144C200.266 9.31467 200.218 9.50133 200.197 9.704ZM205.179 9.632V12H204.563V7.864H205.179V8.584C205.318 8.36 205.499 8.17067 205.723 8.016C205.947 7.856 206.238 7.776 206.595 7.776C206.846 7.776 207.067 7.816 207.259 7.896C207.456 7.976 207.622 8.09067 207.755 8.24C207.894 8.384 207.998 8.55733 208.067 8.76C208.142 8.96267 208.179 9.18667 208.179 9.432V12H207.563V9.584C207.563 9.2 207.464 8.896 207.267 8.672C207.07 8.448 206.787 8.336 206.419 8.336C206.243 8.336 206.078 8.368 205.923 8.432C205.774 8.49067 205.643 8.57867 205.531 8.696C205.419 8.808 205.331 8.944 205.267 9.104C205.208 9.264 205.179 9.44 205.179 9.632ZM210.325 8.408V10.824C210.325 11.08 210.389 11.2587 210.517 11.36C210.645 11.4613 210.813 11.512 211.021 11.512C211.127 11.512 211.226 11.5013 211.317 11.48C211.413 11.4587 211.514 11.4213 211.621 11.368V11.896C211.514 11.9547 211.399 11.9973 211.277 12.024C211.159 12.056 211.026 12.072 210.877 12.072C210.711 12.072 210.557 12.0507 210.413 12.008C210.269 11.9653 210.143 11.8987 210.037 11.808C209.935 11.712 209.855 11.5893 209.797 11.44C209.738 11.2907 209.709 11.112 209.709 10.904V8.408H209.133V7.864H209.709V6.616H210.325V7.864H211.637V8.408H210.325ZM218.062 10.232V7.864H218.67V12H218.062V11.28C217.923 11.504 217.742 11.696 217.518 11.856C217.294 12.0107 217.003 12.088 216.646 12.088C216.395 12.088 216.171 12.048 215.974 11.968C215.782 11.888 215.616 11.776 215.478 11.632C215.344 11.4827 215.24 11.3067 215.166 11.104C215.096 10.9013 215.062 10.6773 215.062 10.432V7.864H215.678V10.28C215.678 10.664 215.776 10.968 215.974 11.192C216.171 11.416 216.454 11.528 216.822 11.528C216.998 11.528 217.16 11.4987 217.31 11.44C217.464 11.376 217.595 11.288 217.702 11.176C217.814 11.0587 217.902 10.92 217.966 10.76C218.03 10.6 218.062 10.424 218.062 10.232ZM222.895 10.84C222.895 11.0373 222.855 11.2133 222.775 11.368C222.701 11.5173 222.597 11.6453 222.463 11.752C222.335 11.8587 222.181 11.9413 221.999 12C221.823 12.0533 221.631 12.08 221.423 12.08C221.125 12.08 220.823 12.0267 220.519 11.92C220.215 11.808 219.946 11.6587 219.711 11.472L220.023 11.032C220.247 11.2027 220.479 11.3333 220.719 11.424C220.965 11.5147 221.21 11.56 221.455 11.56C221.706 11.56 221.911 11.5013 222.071 11.384C222.231 11.2667 222.311 11.1067 222.311 10.904V10.888C222.311 10.7867 222.282 10.6987 222.223 10.624C222.17 10.5493 222.095 10.4853 221.999 10.432C221.903 10.3733 221.791 10.3227 221.663 10.28C221.541 10.2373 221.413 10.1973 221.279 10.16C221.119 10.112 220.957 10.0613 220.791 10.008C220.631 9.94933 220.485 9.87733 220.351 9.792C220.223 9.70667 220.117 9.6 220.031 9.472C219.951 9.344 219.911 9.184 219.911 8.992V8.976C219.911 8.8 219.946 8.64 220.015 8.496C220.085 8.34667 220.181 8.22133 220.303 8.12C220.431 8.01333 220.581 7.93333 220.751 7.88C220.927 7.82133 221.117 7.792 221.319 7.792C221.575 7.792 221.834 7.83467 222.095 7.92C222.357 8 222.594 8.10933 222.807 8.248L222.527 8.712C222.335 8.58933 222.133 8.49333 221.919 8.424C221.711 8.34933 221.506 8.312 221.303 8.312C221.058 8.312 220.863 8.37067 220.719 8.488C220.575 8.6 220.503 8.74133 220.503 8.912V8.928C220.503 9.024 220.533 9.10933 220.591 9.184C220.65 9.25333 220.727 9.31467 220.823 9.368C220.925 9.42133 221.039 9.46933 221.167 9.512C221.295 9.55467 221.429 9.59733 221.567 9.64C221.727 9.688 221.885 9.74133 222.039 9.8C222.199 9.85867 222.343 9.93333 222.471 10.024C222.599 10.1147 222.701 10.224 222.775 10.352C222.855 10.48 222.895 10.6373 222.895 10.824V10.84ZM225.536 8.352C225.29 8.352 225.066 8.38133 224.864 8.44C224.666 8.49333 224.472 8.56533 224.28 8.656L224.096 8.152C224.325 8.04533 224.557 7.96267 224.792 7.904C225.026 7.84 225.296 7.808 225.6 7.808C226.165 7.808 226.6 7.94933 226.904 8.232C227.208 8.50933 227.36 8.92267 227.36 9.472V12H226.768V11.376C226.624 11.5627 226.429 11.728 226.184 11.872C225.944 12.016 225.64 12.088 225.272 12.088C225.08 12.088 224.89 12.0613 224.704 12.008C224.522 11.9547 224.357 11.8747 224.208 11.768C224.064 11.656 223.946 11.52 223.856 11.36C223.77 11.2 223.728 11.0107 223.728 10.792C223.728 10.5733 223.77 10.3813 223.856 10.216C223.941 10.0453 224.061 9.904 224.216 9.792C224.376 9.68 224.562 9.59467 224.776 9.536C224.994 9.47733 225.234 9.448 225.496 9.448C225.762 9.448 225.994 9.464 226.192 9.496C226.389 9.528 226.581 9.57067 226.768 9.624V9.48C226.768 9.10667 226.658 8.82667 226.44 8.64C226.226 8.448 225.925 8.352 225.536 8.352ZM225.56 9.904C225.17 9.904 224.872 9.98133 224.664 10.136C224.456 10.2907 224.352 10.5013 224.352 10.768C224.352 10.9013 224.378 11.0187 224.432 11.12C224.49 11.2213 224.568 11.3093 224.664 11.384C224.76 11.4533 224.869 11.5067 224.992 11.544C225.12 11.5813 225.253 11.6 225.392 11.6C225.584 11.6 225.762 11.5733 225.928 11.52C226.098 11.4613 226.245 11.384 226.368 11.288C226.496 11.1867 226.594 11.0693 226.664 10.936C226.738 10.7973 226.776 10.6453 226.776 10.48V10.08C226.621 10.0373 226.442 9.99733 226.24 9.96C226.042 9.92267 225.816 9.904 225.56 9.904ZM232.608 11.28C232.608 11.616 232.558 11.9093 232.456 12.16C232.36 12.4107 232.219 12.6187 232.032 12.784C231.851 12.9547 231.63 13.0827 231.368 13.168C231.112 13.2533 230.824 13.296 230.504 13.296C230.158 13.296 229.827 13.248 229.512 13.152C229.198 13.056 228.902 12.912 228.624 12.72L228.904 12.24C229.144 12.4107 229.395 12.5413 229.656 12.632C229.918 12.7227 230.198 12.768 230.496 12.768C230.955 12.768 231.32 12.6427 231.592 12.392C231.864 12.1467 232 11.7813 232 11.296V10.808C231.819 11.048 231.598 11.2533 231.336 11.424C231.075 11.5947 230.755 11.68 230.376 11.68C230.126 11.68 229.883 11.6373 229.648 11.552C229.419 11.4613 229.214 11.3333 229.032 11.168C228.851 10.9973 228.704 10.792 228.592 10.552C228.486 10.312 228.432 10.04 228.432 9.736C228.432 9.432 228.486 9.16 228.592 8.92C228.704 8.67467 228.851 8.46933 229.032 8.304C229.214 8.13333 229.422 8.00267 229.656 7.912C229.891 7.82133 230.131 7.776 230.376 7.776C230.568 7.776 230.744 7.8 230.904 7.848C231.07 7.89067 231.216 7.94933 231.344 8.024C231.478 8.09867 231.598 8.18667 231.704 8.288C231.811 8.38933 231.907 8.496 231.992 8.608V7.864H232.608V11.28ZM232.016 9.728C232.016 9.51467 231.974 9.32267 231.888 9.152C231.803 8.976 231.688 8.82667 231.544 8.704C231.406 8.58133 231.246 8.488 231.064 8.424C230.883 8.35467 230.694 8.32 230.496 8.32C230.299 8.32 230.112 8.352 229.936 8.416C229.766 8.48 229.614 8.57333 229.48 8.696C229.352 8.81867 229.251 8.968 229.176 9.144C229.102 9.31467 229.064 9.50667 229.064 9.72C229.064 9.93333 229.102 10.128 229.176 10.304C229.256 10.4747 229.36 10.624 229.488 10.752C229.622 10.8747 229.774 10.9707 229.944 11.04C230.12 11.104 230.304 11.136 230.496 11.136C230.694 11.136 230.883 11.104 231.064 11.04C231.246 10.9707 231.406 10.8747 231.544 10.752C231.688 10.6293 231.803 10.4827 231.888 10.312C231.974 10.136 232.016 9.94133 232.016 9.728ZM234.353 10.16C234.374 10.384 234.428 10.584 234.513 10.76C234.598 10.9307 234.708 11.0773 234.841 11.2C234.974 11.3173 235.124 11.408 235.289 11.472C235.454 11.5307 235.628 11.56 235.809 11.56C236.097 11.56 236.342 11.5067 236.545 11.4C236.753 11.2933 236.942 11.152 237.113 10.976L237.497 11.32C237.289 11.5547 237.052 11.744 236.785 11.888C236.518 12.0267 236.188 12.096 235.793 12.096C235.51 12.096 235.244 12.0453 234.993 11.944C234.742 11.8373 234.524 11.6907 234.337 11.504C234.15 11.312 234.001 11.0827 233.889 10.816C233.782 10.5493 233.729 10.256 233.729 9.936C233.729 9.63733 233.777 9.35733 233.873 9.096C233.974 8.82933 234.113 8.6 234.289 8.408C234.465 8.21067 234.673 8.056 234.913 7.944C235.158 7.832 235.425 7.776 235.713 7.776C236.017 7.776 236.289 7.83467 236.529 7.952C236.769 8.064 236.972 8.21867 237.137 8.416C237.302 8.61333 237.428 8.84533 237.513 9.112C237.598 9.37867 237.641 9.664 237.641 9.968C237.641 9.99467 237.641 10.024 237.641 10.056C237.641 10.088 237.638 10.1227 237.633 10.16H234.353ZM234.353 9.704H237.017C237.001 9.51733 236.961 9.33867 236.897 9.168C236.838 8.99733 236.753 8.848 236.641 8.72C236.534 8.592 236.401 8.49067 236.241 8.416C236.086 8.336 235.905 8.296 235.697 8.296C235.516 8.296 235.348 8.33333 235.193 8.408C235.038 8.47733 234.902 8.576 234.785 8.704C234.668 8.82667 234.572 8.97333 234.497 9.144C234.422 9.31467 234.374 9.50133 234.353 9.704Z" fill="#D9DDFF"/>
<circle cx="268" cy="10" r="5" fill="#FF48D8"/>
<path d="M285.256 9.192C285.256 9.58133 285.187 9.952 285.048 10.304C284.909 10.6507 284.715 10.9573 284.464 11.224C284.213 11.4907 283.912 11.704 283.56 11.864C283.208 12.0187 282.819 12.096 282.392 12.096C281.965 12.096 281.576 12.0187 281.224 11.864C280.877 11.7093 280.579 11.5013 280.328 11.24C280.077 10.9733 279.883 10.6667 279.744 10.32C279.611 9.968 279.544 9.59733 279.544 9.208C279.544 8.81867 279.613 8.45067 279.752 8.104C279.891 7.752 280.085 7.44267 280.336 7.176C280.587 6.90933 280.888 6.69867 281.24 6.544C281.592 6.384 281.981 6.304 282.408 6.304C282.835 6.304 283.221 6.38133 283.568 6.536C283.92 6.69067 284.221 6.90133 284.472 7.168C284.723 7.42933 284.915 7.736 285.048 8.088C285.187 8.43467 285.256 8.80267 285.256 9.192ZM284.6 9.208C284.6 8.888 284.544 8.58667 284.432 8.304C284.325 8.02133 284.173 7.776 283.976 7.568C283.779 7.36 283.544 7.19467 283.272 7.072C283.005 6.94933 282.712 6.888 282.392 6.888C282.072 6.888 281.776 6.94933 281.504 7.072C281.237 7.18933 281.008 7.352 280.816 7.56C280.624 7.768 280.472 8.01333 280.36 8.296C280.253 8.57333 280.2 8.872 280.2 9.192C280.2 9.512 280.253 9.81333 280.36 10.096C280.472 10.3787 280.627 10.624 280.824 10.832C281.021 11.04 281.253 11.2053 281.52 11.328C281.792 11.4507 282.088 11.512 282.408 11.512C282.728 11.512 283.021 11.4533 283.288 11.336C283.56 11.2133 283.792 11.048 283.984 10.84C284.176 10.632 284.325 10.3893 284.432 10.112C284.544 9.82933 284.6 9.528 284.6 9.208ZM290.661 9.928C290.661 10.2693 290.605 10.5733 290.493 10.84C290.381 11.1067 290.232 11.3333 290.045 11.52C289.864 11.7013 289.653 11.8427 289.413 11.944C289.178 12.04 288.936 12.088 288.685 12.088C288.493 12.088 288.317 12.064 288.157 12.016C287.997 11.968 287.853 11.904 287.725 11.824C287.597 11.744 287.48 11.6507 287.373 11.544C287.272 11.4373 287.181 11.3253 287.101 11.208V13.28H286.485V7.864H287.101V8.696C287.186 8.57333 287.28 8.456 287.381 8.344C287.488 8.232 287.605 8.136 287.733 8.056C287.861 7.97067 288.002 7.904 288.157 7.856C288.317 7.80267 288.493 7.776 288.685 7.776C288.93 7.776 289.17 7.824 289.405 7.92C289.645 8.016 289.858 8.15733 290.045 8.344C290.232 8.52533 290.381 8.74933 290.493 9.016C290.605 9.28267 290.661 9.58667 290.661 9.928ZM290.029 9.936C290.029 9.69067 289.989 9.46933 289.909 9.272C289.834 9.07467 289.73 8.90667 289.597 8.768C289.464 8.624 289.309 8.51467 289.133 8.44C288.957 8.36533 288.77 8.328 288.573 8.328C288.381 8.328 288.194 8.368 288.013 8.448C287.837 8.52267 287.677 8.62933 287.533 8.768C287.394 8.90667 287.282 9.07467 287.197 9.272C287.117 9.46933 287.077 9.688 287.077 9.928C287.077 10.168 287.117 10.3893 287.197 10.592C287.282 10.7893 287.394 10.9573 287.533 11.096C287.677 11.2347 287.837 11.344 288.013 11.424C288.194 11.4987 288.381 11.536 288.573 11.536C288.77 11.536 288.957 11.5013 289.133 11.432C289.314 11.3573 289.469 11.2533 289.597 11.12C289.73 10.9813 289.834 10.8133 289.909 10.616C289.989 10.4133 290.029 10.1867 290.029 9.936ZM292.629 8.408V10.824C292.629 11.08 292.693 11.2587 292.821 11.36C292.949 11.4613 293.117 11.512 293.325 11.512C293.432 11.512 293.531 11.5013 293.621 11.48C293.717 11.4587 293.819 11.4213 293.925 11.368V11.896C293.819 11.9547 293.704 11.9973 293.581 12.024C293.464 12.056 293.331 12.072 293.181 12.072C293.016 12.072 292.861 12.0507 292.717 12.008C292.573 11.9653 292.448 11.8987 292.341 11.808C292.24 11.712 292.16 11.5893 292.101 11.44C292.043 11.2907 292.013 11.112 292.013 10.904V8.408H291.437V7.864H292.013V6.616H292.629V7.864H293.941V8.408H292.629ZM295.752 6.96H295.048V6.28H295.752V6.96ZM295.704 12H295.088V7.864H295.704V12ZM300.413 8.6C300.488 8.488 300.571 8.38133 300.661 8.28C300.757 8.17867 300.864 8.09067 300.981 8.016C301.099 7.94133 301.229 7.88267 301.373 7.84C301.523 7.79733 301.688 7.776 301.869 7.776C302.349 7.776 302.725 7.92533 302.997 8.224C303.269 8.51733 303.405 8.92267 303.405 9.44V12H302.789V9.584C302.789 9.184 302.693 8.87733 302.501 8.664C302.315 8.44533 302.053 8.336 301.717 8.336C301.563 8.336 301.416 8.36533 301.277 8.424C301.139 8.47733 301.016 8.56 300.909 8.672C300.808 8.77867 300.725 8.912 300.661 9.072C300.603 9.232 300.573 9.41333 300.573 9.616V12H299.965V9.568C299.965 9.17867 299.869 8.87733 299.677 8.664C299.491 8.44533 299.232 8.336 298.901 8.336C298.736 8.336 298.584 8.368 298.445 8.432C298.307 8.496 298.184 8.58667 298.077 8.704C297.976 8.82133 297.896 8.96 297.837 9.12C297.779 9.27467 297.749 9.448 297.749 9.64V12H297.133V7.864H297.749V8.56C297.819 8.45867 297.893 8.36 297.973 8.264C298.059 8.168 298.155 8.08533 298.261 8.016C298.368 7.94133 298.488 7.88267 298.621 7.84C298.755 7.79733 298.909 7.776 299.085 7.776C299.421 7.776 299.699 7.856 299.917 8.016C300.136 8.17067 300.301 8.36533 300.413 8.6ZM306.239 8.352C305.993 8.352 305.769 8.38133 305.567 8.44C305.369 8.49333 305.175 8.56533 304.983 8.656L304.799 8.152C305.028 8.04533 305.26 7.96267 305.495 7.904C305.729 7.84 305.999 7.808 306.303 7.808C306.868 7.808 307.303 7.94933 307.607 8.232C307.911 8.50933 308.063 8.92267 308.063 9.472V12H307.471V11.376C307.327 11.5627 307.132 11.728 306.887 11.872C306.647 12.016 306.343 12.088 305.975 12.088C305.783 12.088 305.593 12.0613 305.407 12.008C305.225 11.9547 305.06 11.8747 304.911 11.768C304.767 11.656 304.649 11.52 304.559 11.36C304.473 11.2 304.431 11.0107 304.431 10.792C304.431 10.5733 304.473 10.3813 304.559 10.216C304.644 10.0453 304.764 9.904 304.919 9.792C305.079 9.68 305.265 9.59467 305.479 9.536C305.697 9.47733 305.937 9.448 306.199 9.448C306.465 9.448 306.697 9.464 306.895 9.496C307.092 9.528 307.284 9.57067 307.471 9.624V9.48C307.471 9.10667 307.361 8.82667 307.143 8.64C306.929 8.448 306.628 8.352 306.239 8.352ZM306.263 9.904C305.873 9.904 305.575 9.98133 305.367 10.136C305.159 10.2907 305.055 10.5013 305.055 10.768C305.055 10.9013 305.081 11.0187 305.135 11.12C305.193 11.2213 305.271 11.3093 305.367 11.384C305.463 11.4533 305.572 11.5067 305.695 11.544C305.823 11.5813 305.956 11.6 306.095 11.6C306.287 11.6 306.465 11.5733 306.631 11.52C306.801 11.4613 306.948 11.384 307.071 11.288C307.199 11.1867 307.297 11.0693 307.367 10.936C307.441 10.7973 307.479 10.6453 307.479 10.48V10.08C307.324 10.0373 307.145 9.99733 306.943 9.96C306.745 9.92267 306.519 9.904 306.263 9.904ZM310.048 12H309.432V6.16H310.048V12ZM316.812 10.232V7.864H317.42V12H316.812V11.28C316.673 11.504 316.492 11.696 316.268 11.856C316.044 12.0107 315.753 12.088 315.396 12.088C315.145 12.088 314.921 12.048 314.724 11.968C314.532 11.888 314.366 11.776 314.228 11.632C314.094 11.4827 313.99 11.3067 313.916 11.104C313.846 10.9013 313.812 10.6773 313.812 10.432V7.864H314.428V10.28C314.428 10.664 314.526 10.968 314.724 11.192C314.921 11.416 315.204 11.528 315.572 11.528C315.748 11.528 315.91 11.4987 316.06 11.44C316.214 11.376 316.345 11.288 316.452 11.176C316.564 11.0587 316.652 10.92 316.716 10.76C316.78 10.6 316.812 10.424 316.812 10.232ZM321.645 10.84C321.645 11.0373 321.605 11.2133 321.525 11.368C321.451 11.5173 321.347 11.6453 321.213 11.752C321.085 11.8587 320.931 11.9413 320.749 12C320.573 12.0533 320.381 12.08 320.173 12.08C319.875 12.08 319.573 12.0267 319.269 11.92C318.965 11.808 318.696 11.6587 318.461 11.472L318.773 11.032C318.997 11.2027 319.229 11.3333 319.469 11.424C319.715 11.5147 319.96 11.56 320.205 11.56C320.456 11.56 320.661 11.5013 320.821 11.384C320.981 11.2667 321.061 11.1067 321.061 10.904V10.888C321.061 10.7867 321.032 10.6987 320.973 10.624C320.92 10.5493 320.845 10.4853 320.749 10.432C320.653 10.3733 320.541 10.3227 320.413 10.28C320.291 10.2373 320.163 10.1973 320.029 10.16C319.869 10.112 319.707 10.0613 319.541 10.008C319.381 9.94933 319.235 9.87733 319.101 9.792C318.973 9.70667 318.867 9.6 318.781 9.472C318.701 9.344 318.661 9.184 318.661 8.992V8.976C318.661 8.8 318.696 8.64 318.765 8.496C318.835 8.34667 318.931 8.22133 319.053 8.12C319.181 8.01333 319.331 7.93333 319.501 7.88C319.677 7.82133 319.867 7.792 320.069 7.792C320.325 7.792 320.584 7.83467 320.845 7.92C321.107 8 321.344 8.10933 321.557 8.248L321.277 8.712C321.085 8.58933 320.883 8.49333 320.669 8.424C320.461 8.34933 320.256 8.312 320.053 8.312C319.808 8.312 319.613 8.37067 319.469 8.488C319.325 8.6 319.253 8.74133 319.253 8.912V8.928C319.253 9.024 319.283 9.10933 319.341 9.184C319.4 9.25333 319.477 9.31467 319.573 9.368C319.675 9.42133 319.789 9.46933 319.917 9.512C320.045 9.55467 320.179 9.59733 320.317 9.64C320.477 9.688 320.635 9.74133 320.789 9.8C320.949 9.85867 321.093 9.93333 321.221 10.024C321.349 10.1147 321.451 10.224 321.525 10.352C321.605 10.48 321.645 10.6373 321.645 10.824V10.84ZM324.286 8.352C324.04 8.352 323.816 8.38133 323.614 8.44C323.416 8.49333 323.222 8.56533 323.03 8.656L322.846 8.152C323.075 8.04533 323.307 7.96267 323.542 7.904C323.776 7.84 324.046 7.808 324.35 7.808C324.915 7.808 325.35 7.94933 325.654 8.232C325.958 8.50933 326.11 8.92267 326.11 9.472V12H325.518V11.376C325.374 11.5627 325.179 11.728 324.934 11.872C324.694 12.016 324.39 12.088 324.022 12.088C323.83 12.088 323.64 12.0613 323.454 12.008C323.272 11.9547 323.107 11.8747 322.958 11.768C322.814 11.656 322.696 11.52 322.606 11.36C322.52 11.2 322.478 11.0107 322.478 10.792C322.478 10.5733 322.52 10.3813 322.606 10.216C322.691 10.0453 322.811 9.904 322.966 9.792C323.126 9.68 323.312 9.59467 323.526 9.536C323.744 9.47733 323.984 9.448 324.246 9.448C324.512 9.448 324.744 9.464 324.942 9.496C325.139 9.528 325.331 9.57067 325.518 9.624V9.48C325.518 9.10667 325.408 8.82667 325.19 8.64C324.976 8.448 324.675 8.352 324.286 8.352ZM324.31 9.904C323.92 9.904 323.622 9.98133 323.414 10.136C323.206 10.2907 323.102 10.5013 323.102 10.768C323.102 10.9013 323.128 11.0187 323.182 11.12C323.24 11.2213 323.318 11.3093 323.414 11.384C323.51 11.4533 323.619 11.5067 323.742 11.544C323.87 11.5813 324.003 11.6 324.142 11.6C324.334 11.6 324.512 11.5733 324.678 11.52C324.848 11.4613 324.995 11.384 325.118 11.288C325.246 11.1867 325.344 11.0693 325.414 10.936C325.488 10.7973 325.526 10.6453 325.526 10.48V10.08C325.371 10.0373 325.192 9.99733 324.99 9.96C324.792 9.92267 324.566 9.904 324.31 9.904ZM331.358 11.28C331.358 11.616 331.308 11.9093 331.206 12.16C331.11 12.4107 330.969 12.6187 330.782 12.784C330.601 12.9547 330.38 13.0827 330.118 13.168C329.862 13.2533 329.574 13.296 329.254 13.296C328.908 13.296 328.577 13.248 328.262 13.152C327.948 13.056 327.652 12.912 327.374 12.72L327.654 12.24C327.894 12.4107 328.145 12.5413 328.406 12.632C328.668 12.7227 328.948 12.768 329.246 12.768C329.705 12.768 330.07 12.6427 330.342 12.392C330.614 12.1467 330.75 11.7813 330.75 11.296V10.808C330.569 11.048 330.348 11.2533 330.086 11.424C329.825 11.5947 329.505 11.68 329.126 11.68C328.876 11.68 328.633 11.6373 328.398 11.552C328.169 11.4613 327.964 11.3333 327.782 11.168C327.601 10.9973 327.454 10.792 327.342 10.552C327.236 10.312 327.182 10.04 327.182 9.736C327.182 9.432 327.236 9.16 327.342 8.92C327.454 8.67467 327.601 8.46933 327.782 8.304C327.964 8.13333 328.172 8.00267 328.406 7.912C328.641 7.82133 328.881 7.776 329.126 7.776C329.318 7.776 329.494 7.8 329.654 7.848C329.82 7.89067 329.966 7.94933 330.094 8.024C330.228 8.09867 330.348 8.18667 330.454 8.288C330.561 8.38933 330.657 8.496 330.742 8.608V7.864H331.358V11.28ZM330.766 9.728C330.766 9.51467 330.724 9.32267 330.638 9.152C330.553 8.976 330.438 8.82667 330.294 8.704C330.156 8.58133 329.996 8.488 329.814 8.424C329.633 8.35467 329.444 8.32 329.246 8.32C329.049 8.32 328.862 8.352 328.686 8.416C328.516 8.48 328.364 8.57333 328.23 8.696C328.102 8.81867 328.001 8.968 327.926 9.144C327.852 9.31467 327.814 9.50667 327.814 9.72C327.814 9.93333 327.852 10.128 327.926 10.304C328.006 10.4747 328.11 10.624 328.238 10.752C328.372 10.8747 328.524 10.9707 328.694 11.04C328.87 11.104 329.054 11.136 329.246 11.136C329.444 11.136 329.633 11.104 329.814 11.04C329.996 10.9707 330.156 10.8747 330.294 10.752C330.438 10.6293 330.553 10.4827 330.638 10.312C330.724 10.136 330.766 9.94133 330.766 9.728ZM333.103 10.16C333.124 10.384 333.178 10.584 333.263 10.76C333.348 10.9307 333.458 11.0773 333.591 11.2C333.724 11.3173 333.874 11.408 334.039 11.472C334.204 11.5307 334.378 11.56 334.559 11.56C334.847 11.56 335.092 11.5067 335.295 11.4C335.503 11.2933 335.692 11.152 335.863 10.976L336.247 11.32C336.039 11.5547 335.802 11.744 335.535 11.888C335.268 12.0267 334.938 12.096 334.543 12.096C334.26 12.096 333.994 12.0453 333.743 11.944C333.492 11.8373 333.274 11.6907 333.087 11.504C332.9 11.312 332.751 11.0827 332.639 10.816C332.532 10.5493 332.479 10.256 332.479 9.936C332.479 9.63733 332.527 9.35733 332.623 9.096C332.724 8.82933 332.863 8.6 333.039 8.408C333.215 8.21067 333.423 8.056 333.663 7.944C333.908 7.832 334.175 7.776 334.463 7.776C334.767 7.776 335.039 7.83467 335.279 7.952C335.519 8.064 335.722 8.21867 335.887 8.416C336.052 8.61333 336.178 8.84533 336.263 9.112C336.348 9.37867 336.391 9.664 336.391 9.968C336.391 9.99467 336.391 10.024 336.391 10.056C336.391 10.088 336.388 10.1227 336.383 10.16H333.103ZM333.103 9.704H335.767C335.751 9.51733 335.711 9.33867 335.647 9.168C335.588 8.99733 335.503 8.848 335.391 8.72C335.284 8.592 335.151 8.49067 334.991 8.416C334.836 8.336 334.655 8.296 334.447 8.296C334.266 8.296 334.098 8.33333 333.943 8.408C333.788 8.47733 333.652 8.576 333.535 8.704C333.418 8.82667 333.322 8.97333 333.247 9.144C333.172 9.31467 333.124 9.50133 333.103 9.704Z" fill="#D9DDFF"/>
</svg>
