<svg width="20" height="21" viewBox="0 0 20 21" fill="none" xmlns="http://www.w3.org/2000/svg">
<g clip-path="url(#clip0_1_62)">
<path d="M7.9339 7.18135C8.33878 6.3877 9.02215 5.77125 9.85319 5.45001C10.6842 5.12877 11.6045 5.12531 12.438 5.44029C13.2714 5.75528 13.9594 6.36658 14.3702 7.15717C14.7811 7.94776 14.8859 8.8621 14.6646 9.72515L14.2983 11.1564L14.2888 11.1924C14.1096 11.9033 14.0832 12.6441 14.2114 13.366L14.2181 13.4031L14.3472 14.1191C14.4652 14.7691 14.5239 15.094 14.4071 15.2986C14.3297 15.4344 14.2058 15.5376 14.0583 15.5893C13.8355 15.6672 13.5264 15.5504 12.9087 15.3169L5.55245 12.5367C4.93418 12.303 4.62504 12.1862 4.50991 11.9813C4.43307 11.8448 4.40829 11.685 4.44015 11.5317C4.48845 11.3012 4.74737 11.0964 5.26522 10.6866L5.83702 10.2349L5.86666 10.2115C6.43989 9.75486 6.90978 9.18188 7.24534 8.53034L7.26203 8.49717L7.9339 7.18135Z" fill="#5841FB" stroke="#F0FFFF"/>
<path d="M7.38095 13.509C7.31416 13.9992 7.39194 14.4844 7.60235 14.8881C7.8123 15.293 8.14327 15.5941 8.54333 15.7453C8.94339 15.8965 9.39073 15.8896 9.8158 15.7253C10.2411 15.5605 10.6195 15.2484 10.8942 14.8368" fill="#5841FB"/>
<path d="M7.38095 13.509C7.31416 13.9992 7.39194 14.4844 7.60235 14.8881C7.8123 15.293 8.14327 15.5941 8.54333 15.7453C8.94339 15.8965 9.39073 15.8896 9.8158 15.7253C10.2411 15.5605 10.6195 15.2484 10.8942 14.8368" stroke="#F0FFFF" stroke-linecap="round"/>
</g>
<defs>
<clipPath id="clip0_1_62">
<rect width="14.6649" height="15.0164" fill="white" transform="translate(6.28589 0.977112) rotate(20.7035)"/>
</clipPath>
</defs>
</svg>
