<svg width="62" height="43" viewBox="0 0 62 43" fill="none" xmlns="http://www.w3.org/2000/svg">
<path d="M27.2835 11.3818C24.5383 7.76733 19.0022 6.24343 12.7797 8.63662C4.72724 11.7337 4.54705 19.7089 5.59653 23.4148C7.11245 28.7679 11.3665 29.3627 11.5444 30.9641C11.702 32.3824 9.028 33.2059 8.79923 33.6635C8.57048 34.121 8.79923 34.67 9.62279 35.1733C10.4463 35.6765 12.1105 35.6698 13.0543 35.4478C13.8321 35.2648 15.5255 34.7331 15.983 34.2298C16.7642 35.5313 15.4622 37.3221 17.7081 37.5173C19.9542 37.7126 22.1889 33.9434 22.2651 32.8302C22.5396 33.3792 24.1089 35.0174 26.3015 35.1733C27.9344 35.2893 29.4589 34.7969 29.4589 33.9369C29.4589 33.3184 28.791 33.0775 27.9941 32.6349C27.1972 32.1921 27.2454 31.5282 27.2454 31.5282C27.2454 31.5282 29.0272 32.3621 30.6744 32.1791C32.7333 31.9503 33.7923 31.3558 33.0069 30.1936C32.1931 28.9892 30.7653 29.5101 29.6216 27.8174C28.6015 26.3075 30.3225 22.3361 30.414 20.9177C30.5055 19.4995 30.8407 16.0656 27.2835 11.3818Z" fill="#FF48D8"/>
<path d="M28.8488 27.417C28.9638 25.2732 30.2781 21.9513 30.3489 20.8526C30.3746 20.4535 30.4248 19.8997 30.4043 19.2056C30.8522 18.8394 32.0874 17.3296 32.6824 17.3754C33.2771 17.4211 33.6431 18.4734 33.3686 19.7546C33.0941 21.0356 32.2249 22.454 30.4862 23.4605C29.4107 24.0832 29.0895 25.8397 28.9762 26.526C28.9336 26.7849 28.8775 27.0956 28.8488 27.417C28.8154 28.0407 28.8836 28.5648 29.1135 28.9052C28.8286 28.5062 28.8014 27.9474 28.8488 27.417Z" fill="#FF48D8"/>
<path d="M15.4051 27.9336C17.2341 27.9336 18.7168 26.451 18.7168 24.622C18.7168 22.7931 17.2341 21.3103 15.4051 21.3103C13.5761 21.3103 12.0935 22.7931 12.0935 24.622C12.0935 26.451 13.5761 27.9336 15.4051 27.9336Z" fill="white"/>
<path d="M16.3681 26.9314C17.6676 26.9314 18.7211 25.878 18.7211 24.5784C18.7211 23.2788 17.6676 22.2255 16.3681 22.2255C15.0686 22.2255 14.0151 23.2788 14.0151 24.5784C14.0151 25.878 15.0686 26.9314 16.3681 26.9314Z" fill="url(#paint0_linear_1_71)"/>
<path d="M14.6099 28.9052C15.7994 30.0032 15.5249 29.7744 17.355 29.7744C18.9645 29.7744 19.9016 30.1283 20.042 30.7116C20.0561 30.7623 20.0624 30.8159 20.0604 30.8724C20.0604 30.9024 20.0583 30.933 20.0544 30.9641C19.9343 31.9249 17.721 33.755 15.7079 33.755C14.0602 33.755 13.649 33.1144 13.466 32.7026C13.8778 33.0686 14.3458 33.7143 15.8909 33.6178C17.355 33.5263 20.0228 31.9249 20.0604 30.8726C20.0604 30.8724 20.0604 30.8724 20.0604 30.8724C20.0606 30.817 20.0544 30.7634 20.042 30.7116C19.8632 30.0658 18.4468 29.873 17.355 29.8659C16.5868 29.8611 16.0234 29.9864 15.6622 29.8659C15.3327 29.7562 14.8539 29.2254 14.6099 28.9052Z" fill="#100030"/>
<path d="M18.1982 25.6502C18.487 25.6502 18.7211 25.4163 18.7211 25.1274C18.7211 24.8386 18.487 24.6045 18.1982 24.6045C17.9094 24.6045 17.6753 24.8386 17.6753 25.1274C17.6753 25.4163 17.9094 25.6502 18.1982 25.6502Z" fill="white"/>
<path d="M24.5883 24.8487C26.2729 24.8487 27.6385 23.483 27.6385 21.7985C27.6385 20.1139 26.2729 18.7483 24.5883 18.7483C22.9038 18.7483 21.5381 20.1139 21.5381 21.7985C21.5381 23.483 22.9038 24.8487 24.5883 24.8487Z" fill="white"/>
<path d="M25.1526 24.0947C26.4522 24.0947 27.5057 23.0412 27.5057 21.7418C27.5057 20.4422 26.4522 19.3888 25.1526 19.3888C23.8532 19.3888 22.7996 20.4422 22.7996 21.7418C22.7996 23.0412 23.8532 24.0947 25.1526 24.0947Z" fill="url(#paint1_linear_1_71)"/>
<path d="M26.9828 22.9052C27.2716 22.9052 27.5057 22.6711 27.5057 22.3823C27.5057 22.0934 27.2716 21.8595 26.9828 21.8595C26.694 21.8595 26.4598 22.0934 26.4598 22.3823C26.4598 22.6711 26.694 22.9052 26.9828 22.9052Z" fill="white"/>
<path d="M26.4275 16.2949C26.5031 16.3321 26.566 16.3674 26.6337 16.4062C26.7001 16.4444 26.7659 16.4851 26.8314 16.5283C26.8993 16.5727 26.9649 16.6208 27.0276 16.6721C27.105 16.7325 27.1725 16.8039 27.2283 16.884C27.256 16.9251 27.269 16.9741 27.2649 17.0233C27.261 17.0724 27.2402 17.1187 27.206 17.1547C27.1717 17.1907 27.1262 17.2143 27.0765 17.2217C27.0269 17.2291 26.9763 17.2198 26.9326 17.1954L26.8582 17.1536C26.8201 17.1309 26.7806 17.1102 26.7401 17.0918C26.6878 17.0684 26.6304 17.0457 26.5695 17.0253C26.5089 17.0049 26.447 16.9855 26.3836 16.9681C26.3215 16.951 26.2532 16.9333 26.1963 16.922C26.1483 16.9125 26.1031 16.893 26.0633 16.8649C26.0237 16.8368 25.9904 16.8008 25.9661 16.7592C25.9417 16.7175 25.9266 16.6713 25.9218 16.6235C25.917 16.5757 25.9225 16.5276 25.9383 16.4821C25.954 16.4367 25.9793 16.3952 26.0127 16.3602C26.046 16.3252 26.0868 16.2977 26.1318 16.2793C26.1769 16.261 26.2255 16.2524 26.2744 16.254C26.3231 16.2556 26.3711 16.2674 26.415 16.2886L26.4275 16.2949Z" fill="#100030"/>
<path d="M11.9313 21.5636C11.8869 21.6041 11.8369 21.6569 11.7915 21.7059C11.7453 21.7559 11.701 21.8068 11.6588 21.8585C11.6165 21.9101 11.5773 21.9623 11.543 22.0135C11.5135 22.0566 11.4876 22.102 11.4655 22.1494L11.4427 22.2C11.4269 22.2353 11.3997 22.2643 11.3654 22.2824C11.3312 22.3006 11.2918 22.3067 11.2535 22.2999C11.2152 22.2932 11.1801 22.2738 11.1537 22.245C11.1274 22.2164 11.1112 22.1795 11.1078 22.1409C11.101 22.0453 11.108 21.9495 11.1286 21.8561C11.1448 21.775 11.1651 21.6951 11.1896 21.616C11.2132 21.5392 11.2388 21.4639 11.2665 21.3901C11.2949 21.3149 11.3215 21.2456 11.3579 21.1663L11.3666 21.1476C11.386 21.105 11.4136 21.0665 11.4479 21.0347C11.4822 21.0029 11.5225 20.9781 11.5665 20.9621C11.6104 20.946 11.6572 20.9389 11.7042 20.9409C11.7511 20.943 11.7972 20.9543 11.8398 20.9742C11.8825 20.9943 11.9209 21.0224 11.9527 21.0572C11.9846 21.092 12.0094 21.1327 12.0256 21.1769C12.0418 21.2212 12.0491 21.2683 12.0472 21.3151C12.0452 21.3622 12.034 21.4081 12.0142 21.4505C11.9942 21.4933 11.966 21.5318 11.9313 21.5636Z" fill="#100030"/>
<path d="M22.3548 26.0134C22.4574 26.4564 22.469 27.2582 21.7827 27.4869C20.8915 27.7839 20.3388 27.0415 20.236 26.5985C20.1333 26.1553 20.6643 26.2174 21.3328 26.0625C21.8677 25.9385 22.272 25.6567 22.3548 26.0134Z" fill="#100030"/>
<path d="M44.1712 19.2424C44.458 16.7231 44.0204 14.0553 43.7234 11.5583C42.2569 11.5925 41.4714 11.6264 39.7227 11.79C41.3557 14.3058 41.1448 16.6015 40.6908 19.3914C41.9657 19.3575 42.6432 19.3261 44.1712 19.2424Z" fill="#15F0B7"/>
<path d="M43.9917 18.9432C44.3538 16.0306 43.8346 14.6392 43.5374 11.8593C42.2566 11.8821 41.577 11.9055 40.0887 12.0177C41.2095 13.9654 41.7048 16.9 40.978 19.0561C42.0998 19.0317 42.6895 19.0083 43.9917 18.9432ZM43.4656 11.9494C43.7799 14.6498 44.2686 16.0118 43.9205 18.8539C42.7003 18.9129 42.1429 18.9339 41.0799 18.9558C41.9757 15.9491 41.3559 14.4222 40.2211 12.087C41.6148 11.99 42.2549 11.9693 43.4656 11.9494Z" fill="#12C093"/>
<path d="M41.1601 13.7939C41.0046 13.2599 40.8121 12.7373 40.5841 12.23C40.53 12.233 40.5028 12.2347 40.4485 12.2378C40.6845 12.7413 40.8835 13.2614 41.0435 13.794C41.0903 13.7939 41.1136 13.7939 41.1601 13.7939Z" fill="#12C093"/>
<path d="M42.5467 18.5919C42.6709 17.9817 42.7254 17.3593 42.7092 16.7367C42.6806 16.7366 42.6663 16.7366 42.6378 16.7365C42.6538 17.3602 42.5975 17.9836 42.4702 18.5943C42.5007 18.5933 42.516 18.5929 42.5467 18.5919Z" fill="#12C093"/>
<path d="M43.7691 18.6756C43.86 17.9706 43.8824 17.2584 43.8359 16.549C43.6527 16.5502 43.5616 16.5504 43.38 16.5508C43.4198 17.2685 43.3793 17.9885 43.259 18.6973C43.4606 18.6892 43.5625 18.6849 43.7691 18.6756Z" fill="#91F8DD"/>
<path d="M43.0771 11.9051C43.1731 12.5494 43.2285 12.8706 43.3291 13.5217C43.3399 13.6311 43.3869 13.7337 43.4628 13.8134C43.5385 13.893 43.6387 13.9451 43.7475 13.9613C43.6367 13.1259 43.5725 12.7147 43.4788 11.8826C43.3192 11.8912 43.2389 11.8957 43.0771 11.9051Z" fill="#12C093"/>
<path d="M41.4016 18.9625C41.5813 18.3815 41.681 17.7785 41.6979 17.1704C41.717 17.0647 41.6938 16.9556 41.6332 16.8669C41.5724 16.7781 41.4792 16.7168 41.3737 16.6961C41.4022 17.4732 41.2906 18.249 41.0444 18.9863C41.1863 18.9772 41.2577 18.9724 41.4016 18.9625Z" fill="#12C093"/>
<path d="M42.9359 17.6543C42.9452 17.6098 42.9454 17.564 42.9363 17.5195C42.9274 17.475 42.9093 17.4329 42.8833 17.3956C42.8575 17.3583 42.8242 17.3268 42.7857 17.3028C42.747 17.2788 42.704 17.263 42.6592 17.2562C42.5655 17.2743 42.4812 17.3249 42.4215 17.3991C42.3616 17.4733 42.33 17.5664 42.3323 17.6617C42.3109 17.8853 42.42 18.0659 42.5893 18.0625C42.6858 18.046 42.7734 17.996 42.8368 17.9214C42.9002 17.8467 42.9354 17.7522 42.9359 17.6543ZM42.4031 17.6611C42.4016 17.588 42.426 17.5169 42.4721 17.4602C42.518 17.4035 42.5826 17.3649 42.6544 17.3512C42.7801 17.3504 42.8772 17.4863 42.864 17.6554C42.8638 17.7299 42.8372 17.8019 42.7892 17.8589C42.741 17.9158 42.6745 17.9541 42.6012 17.9669C42.4725 17.9692 42.3871 17.8316 42.4031 17.6611Z" fill="#12C093"/>
<path d="M42.421 14.1685C42.7305 14.1814 43.0252 14.304 43.2525 14.5145C43.4796 14.7249 43.6244 15.0094 43.6607 15.3169C43.6808 15.4579 43.6707 15.6016 43.6309 15.7384C43.5913 15.8752 43.5231 16.002 43.4308 16.1104C43.3384 16.2189 43.224 16.3065 43.0953 16.3674C42.9666 16.4283 42.8262 16.4612 42.6838 16.4639C42.1007 16.4595 41.6224 15.9133 41.524 15.2787C41.4258 14.6441 41.805 14.1595 42.421 14.1685Z" fill="#12C093"/>
<path d="M41.9549 12.7967C42.0341 12.8009 42.11 12.8307 42.1708 12.8818C42.2318 12.9328 42.2744 13.0023 42.2923 13.0797C42.3044 13.1114 42.3088 13.1456 42.3049 13.1793C42.3012 13.213 42.2893 13.2454 42.2705 13.2736C42.2516 13.3018 42.2263 13.3251 42.1965 13.3415C42.1669 13.358 42.1336 13.367 42.0998 13.368C42.0211 13.3606 41.9467 13.3294 41.8865 13.2785C41.8262 13.2276 41.7829 13.1596 41.7623 13.0834C41.7492 13.0518 41.7442 13.0175 41.7476 12.9835C41.7509 12.9495 41.7626 12.9168 41.7818 12.8885C41.8007 12.8601 41.8266 12.8369 41.8567 12.8209C41.887 12.8049 41.9207 12.7966 41.9549 12.7967Z" fill="#12C093"/>
<path d="M42.7258 13.563C42.6494 13.1621 42.6075 12.9638 42.524 12.5705C42.4493 12.5716 42.4117 12.5721 42.3364 12.5733C42.4262 12.9643 42.4706 13.1617 42.5515 13.5615C42.6215 13.5621 42.6562 13.5624 42.7258 13.563Z" fill="#12C093"/>
<path d="M42.9015 13.5648C42.8296 13.1628 42.7905 12.9639 42.7131 12.5684C42.6759 12.5688 42.6573 12.569 42.6201 12.5695C42.7005 12.9639 42.7408 13.1624 42.8151 13.564C42.8498 13.5643 42.8671 13.5644 42.9015 13.5648Z" fill="#91F8DD"/>
<path d="M45.4713 8.72626C45.6452 11.1866 45.2405 12.5914 43.5497 14.8916C44.7239 15.3324 45.3043 15.5505 46.4525 15.9807C48.3594 13.7689 48.8758 12.3774 48.9322 9.88184C47.5617 9.41771 46.8695 9.18621 45.4713 8.72626Z" fill="#15F0B7"/>
<path d="M45.6886 9.03693C45.7665 11.3181 45.3901 12.5912 43.8852 14.7301C44.9328 15.1234 45.4513 15.3182 46.4784 15.7035C48.16 13.6329 48.6277 12.3708 48.7376 10.0649C47.5288 9.65237 46.919 9.44657 45.6886 9.03693ZM44.0001 14.6868C45.4516 12.5973 45.8202 11.3628 45.7691 9.13611C46.9339 9.5253 47.5115 9.72065 48.6567 10.1123C48.5342 12.3608 48.0813 13.5852 46.4661 15.6125C45.4888 15.2459 44.9958 15.0606 44.0001 14.6868Z" fill="#12C093"/>
<path d="M47.2286 14.0783C46.9809 14.542 46.6926 14.983 46.3676 15.3962C46.4068 15.4109 46.4267 15.4183 46.4657 15.4331C46.7923 15.0205 47.0819 14.5799 47.3311 14.1165C47.2902 14.1013 47.2697 14.0936 47.2286 14.0783Z" fill="#12C093"/>
<path d="M47.1823 9.86206C47.1676 10.349 47.1038 10.8332 46.9915 11.3072C47.022 11.3182 47.0371 11.3235 47.0674 11.3343C47.1807 10.8603 47.2457 10.3761 47.2614 9.88897L47.1823 9.86206Z" fill="#12C093"/>
<path d="M45.9383 9.33843C45.9487 9.90737 45.8909 10.4755 45.7657 11.0306C45.9579 11.0988 46.0536 11.133 46.2452 11.2011C46.3776 10.6465 46.4429 10.0779 46.4401 9.50761C46.2396 9.4399 46.1394 9.40607 45.9383 9.33843Z" fill="#91F8DD"/>
<path d="M44.2817 14.8436C44.5809 14.4374 44.8448 14.0063 45.0704 13.555C45.0947 13.5132 45.1098 13.4665 45.1145 13.4183C45.1189 13.3701 45.113 13.3215 45.0968 13.2759C45.0806 13.2302 45.0546 13.1886 45.0207 13.1541C44.9869 13.1195 44.946 13.0927 44.9006 13.0756C44.6443 13.6609 44.3246 14.2164 43.9471 14.7319C44.081 14.7766 44.1479 14.799 44.2817 14.8436Z" fill="#12C093"/>
<path d="M48.3082 9.98259C48.295 10.4416 48.2377 10.8982 48.1371 11.3462C48.1185 11.4477 48.136 11.5526 48.1868 11.6426C48.2374 11.7326 48.3577 11.8094 48.4542 11.8461C48.6147 11.2795 48.6662 10.6882 48.6863 10.0997C48.5351 10.0528 48.4596 10.0294 48.3082 9.98259Z" fill="#12C093"/>
<path d="M46.8401 10.4879C46.8331 10.5789 46.8559 10.6696 46.9052 10.7465C46.9543 10.8233 47.0272 10.882 47.1128 10.9137C47.1498 10.9303 47.1903 10.9381 47.2309 10.9365C47.2716 10.9348 47.3112 10.9237 47.3469 10.9041C47.3824 10.8845 47.4129 10.857 47.4362 10.8235C47.4592 10.7901 47.4745 10.7518 47.4802 10.7115C47.4862 10.6193 47.4615 10.5277 47.4103 10.4508C47.359 10.374 47.2839 10.3161 47.1965 10.2862C47.1602 10.2692 47.1202 10.2612 47.0802 10.2627C47.0402 10.2643 47.0012 10.2754 46.9662 10.2952C46.9314 10.3149 46.9017 10.3427 46.8797 10.3762C46.8578 10.4097 46.8442 10.448 46.8401 10.4879ZM47.4047 10.6851C47.4003 10.7158 47.3889 10.745 47.3715 10.7706C47.3538 10.7961 47.3305 10.8172 47.3034 10.8322C47.2762 10.8471 47.2461 10.8556 47.215 10.8568C47.1842 10.8581 47.1533 10.8521 47.125 10.8394C47.0596 10.8153 47.0038 10.7706 46.966 10.7119C46.9283 10.6533 46.9108 10.5839 46.916 10.5143C46.9192 10.4839 46.9298 10.4546 46.9467 10.429C46.9634 10.4035 46.9861 10.3823 47.0129 10.3672C47.0395 10.3521 47.0694 10.3436 47.1001 10.3424C47.1306 10.3412 47.1611 10.3473 47.189 10.3603C47.2556 10.3833 47.3127 10.4275 47.3516 10.4862C47.3906 10.5449 47.4092 10.6148 47.4047 10.6851Z" fill="#12C093"/>
<path d="M46.3041 13.3778C46.038 13.2933 45.8148 13.1089 45.6815 12.8634C45.5482 12.6178 45.5151 12.3302 45.5893 12.0608C45.7559 11.5483 46.3454 11.3092 46.9644 11.531C47.5833 11.7528 47.9714 12.3507 47.7734 12.8593C47.5755 13.3679 46.8918 13.5957 46.3041 13.3778Z" fill="#12C093"/>
<path d="M45.8163 14.5497C45.787 14.5374 45.7609 14.5185 45.7401 14.4944C45.7194 14.4703 45.7044 14.4418 45.6964 14.411C45.6886 14.3802 45.6878 14.348 45.6943 14.3168C45.7008 14.2857 45.7146 14.2566 45.7343 14.2316C45.7697 14.1692 45.8249 14.1205 45.8911 14.0933C45.9575 14.0661 46.0311 14.062 46.1 14.0816C46.1299 14.0935 46.1567 14.1121 46.1782 14.136C46.1998 14.1599 46.2154 14.1885 46.224 14.2196C46.2327 14.2506 46.234 14.2832 46.2279 14.3148C46.2218 14.3464 46.2084 14.3761 46.1887 14.4017C46.1515 14.4637 46.0947 14.5118 46.0274 14.5385C45.9603 14.5653 45.8861 14.5692 45.8163 14.5497Z" fill="#12C093"/>
<path d="M45.659 13.7279C45.5152 14.0042 45.3571 14.2727 45.1851 14.5322C45.2474 14.5556 45.2787 14.5673 45.3412 14.5907C45.5145 14.3316 45.6739 14.0635 45.8187 13.7875C45.7549 13.7637 45.723 13.7518 45.659 13.7279Z" fill="#12C093"/>
<path d="M45.4965 13.6676C45.354 13.9442 45.1972 14.213 45.0263 14.4729C45.0577 14.4846 45.0734 14.4905 45.1044 14.5022C45.2759 14.2425 45.4334 13.9738 45.5764 13.6974L45.4965 13.6676Z" fill="#91F8DD"/>
<path d="M37.6044 35.6589C37.7554 35.6486 37.909 35.6364 38.0626 35.6241C38.2951 33.8659 39.1032 29.7525 41.5577 29.3792C44.3644 28.9517 48.3469 31.7811 49.3142 32.5042C49.4685 32.4378 49.6255 32.3693 49.7825 32.3009C49.3447 31.9514 44.7866 28.4339 41.4913 28.9351C38.6593 29.3658 37.824 33.865 37.6044 35.6589Z" fill="#6018C8"/>
<path d="M39.7602 35.4132C39.9127 35.3918 40.066 35.3658 40.2216 35.3381C40.4119 34.0719 41.0366 31.6399 42.3111 31.5371C43.9728 31.4028 45.7576 32.4181 46.8353 33.4988C46.9859 33.4432 47.139 33.3855 47.2922 33.3279C46.1598 32.1218 44.1494 30.9386 42.2744 31.0904C40.4591 31.2369 39.8805 34.5449 39.7602 35.4132Z" fill="#6018C8"/>
<path d="M42.0488 34.9644C42.201 34.9293 42.3555 34.8945 42.5086 34.8527C42.5508 34.4262 42.6949 33.6472 43.1773 33.6157C43.6854 33.5811 44.1848 34.0072 44.4568 34.3105L44.4591 34.3109C44.6132 34.2626 44.7652 34.2138 44.9218 34.1634C44.7219 33.9111 44.015 33.1091 43.1478 33.1677C42.2372 33.2293 42.0752 34.504 42.0488 34.9644Z" fill="#6018C8"/>
<path d="M32.8927 35.0682C32.8927 35.0682 32.2306 36.9322 32.785 37.1264C33.3394 37.3206 34.2914 35.967 34.2914 35.967L32.8927 35.0682Z" fill="#2D1A83"/>
<path d="M52.371 19.5934C52.371 19.5934 51.9334 20.3003 52.7805 20.8457C53.6278 21.391 55.0917 20.2815 55.2944 19.2339C55.4971 18.1862 55.0898 18.7652 54.697 19.0927C54.3042 19.42 53.4672 19.6573 53.4672 19.6573L52.371 19.5934Z" fill="#5840FF"/>
<path d="M51.2788 21.481C51.8239 21.3947 52.3394 21.1766 52.7807 20.8455C53.4791 20.3053 53.2102 19.7916 52.9435 19.7135C52.6766 19.6354 52.3065 19.803 52.3712 19.5932C52.4248 19.4768 52.5035 19.3735 52.6016 19.2913C52.6998 19.209 52.8151 19.1493 52.9392 19.1169C53.0632 19.0845 53.1929 19.0801 53.319 19.1039C53.4449 19.1277 53.5641 19.179 53.6678 19.2545C54.372 19.7061 54.2957 20.6635 54.0197 21.2586C53.7437 21.8535 52.1376 22.3594 52.1376 22.3594L51.2788 21.481Z" fill="#6675F6"/>
<path d="M36.074 20.1414C36.074 20.1414 35.52 18.8643 34.3571 18.9315C33.1942 18.9988 32.2983 20.0358 31.5245 20.1952C30.7508 20.3544 30.4737 20.802 30.5972 21.2932C30.7207 21.7843 31.5957 22.5727 33.0158 22.7204C34.4361 22.8678 36.074 20.1414 36.074 20.1414Z" fill="#6675F6"/>
<path d="M30.2703 29.8451C30.1985 30.6582 30.252 31.4772 30.4289 32.2741C30.4525 32.3788 30.4812 32.4822 30.5146 32.5847C30.5163 32.5878 30.5178 32.5914 30.5191 32.5949C31.0389 34.2475 32.5168 35.3481 33.9983 36.1221C34.9673 36.6243 35.9875 37.0198 37.0414 37.3023C37.2628 37.3615 39.6914 37.8735 39.9873 37.8511L39.9998 37.8472L40.0198 37.8404C39.9585 38.3628 39.9311 39.2871 40.4322 39.5184C40.4987 39.5487 40.5703 39.5664 40.6434 39.5707C41.4169 39.6244 41.6641 38.4526 41.7342 37.9415C43.8124 37.9759 45.8866 37.7479 47.9074 37.2629C47.8561 37.7139 47.8715 38.4386 48.4302 38.6789C48.5085 38.7143 48.5915 38.7377 48.6766 38.7487C49.7348 38.9043 50.0129 36.6178 50.0512 36.2605C52.3318 34.7677 54.0283 32.2542 54.2518 28.9111C54.2883 28.3714 54.287 27.83 54.2477 27.2905C53.8964 22.2841 49.011 16.7472 42.3122 17.7371C35.613 18.7293 32.1246 22.0148 30.6394 27.7184C30.4536 28.4149 30.33 29.1267 30.2703 29.8451Z" fill="#5840FF"/>
<path opacity="0.1" d="M45.7215 26.6896C45.7215 26.6896 45.8394 25.1778 44.8108 24.3871C43.7823 23.5965 42.7161 23.3274 42.3821 23.4367C42.0481 23.5459 39.7375 25.4973 40.2624 26.3913C40.787 27.2853 42.511 27.1624 43.405 26.929C44.2991 26.6954 44.5214 26.6967 44.7587 26.9238C44.996 27.151 45.6501 27.4255 45.7215 26.6896Z" fill="#180048"/>
<path d="M45.773 26.4717C45.773 26.4717 45.8909 24.9599 44.8624 24.1691C43.834 23.3785 42.7676 23.1094 42.4336 23.2186C42.0998 23.3279 39.7892 25.2794 40.3139 26.1734C40.8387 27.0672 42.5625 26.9444 43.4567 26.7108C44.3506 26.4774 44.5729 26.4787 44.8104 26.7058C45.0477 26.9331 45.7018 27.2076 45.773 26.4717Z" fill="#6675F6"/>
<path d="M32.2068 31.8413C32.2269 31.6524 32.2879 31.4701 32.3857 31.3072C32.6805 30.812 33.5116 29.8514 35.3665 30.3106C37.8186 30.9176 37.5261 32.6187 37.164 33.4526C36.8019 34.2866 35.6065 34.5804 34.0214 34.0822C32.5851 33.6308 32.1194 32.6989 32.2068 31.8413Z" fill="#6675F6"/>
<path d="M38.9715 19.9729L40.5382 20.9815C41.6514 20.33 44.0246 19.9947 45.6835 19.8338C46.7189 19.7354 47.476 19.7023 47.476 19.7023L46.0096 18.494L46.0058 18.4908C41.8761 18.5421 39.3023 19.8022 39.0007 19.9566C38.9927 19.9616 38.9851 19.9644 38.9797 19.9677L38.9715 19.9729Z" fill="#100030"/>
<path d="M38.9715 19.9731L40.5383 20.9817C41.6514 20.3302 44.0246 19.9949 45.6835 19.8342L46.0096 18.4944L46.0058 18.4912C41.8761 18.5425 39.3023 19.8026 39.0007 19.9571C38.9927 19.9622 38.9851 19.9649 38.9797 19.9683L38.9715 19.9731Z" fill="#180048"/>
<path d="M39.0965 32.729C38.5979 32.6585 38.2508 32.1975 38.3213 31.6993C38.3916 31.201 38.8528 30.8544 39.3514 30.9249C39.85 30.9952 40.1971 31.4562 40.1268 31.9544C40.0563 32.4526 39.5951 32.7995 39.0965 32.729Z" fill="white"/>
<path d="M31.8689 30.3749C31.3703 30.3046 31.0233 29.8436 31.0936 29.3454C31.1641 28.8471 31.6253 28.5003 32.1239 28.5708C32.6225 28.6413 32.9695 29.1023 32.899 29.6005C32.8287 30.0988 32.3675 30.4454 31.8689 30.3749Z" fill="white"/>
<path d="M39.3416 31.0485C39.5045 31.0775 39.6544 31.1566 39.7701 31.2749C39.7059 31.2752 39.6427 31.2899 39.585 31.3182C39.5276 31.3463 39.477 31.3872 39.4374 31.4376C39.3978 31.488 39.3701 31.5468 39.3563 31.6094C39.3425 31.6721 39.3431 31.737 39.358 31.7993C39.3728 31.8618 39.4015 31.92 39.442 31.9697C39.4826 32.0193 39.5337 32.0593 39.5919 32.0867C39.6499 32.1138 39.7136 32.1276 39.7777 32.1268C39.8419 32.1261 39.9049 32.1108 39.9624 32.0822C39.9153 32.2285 39.8268 32.3584 39.7078 32.4558C39.5889 32.5533 39.4443 32.6144 39.2914 32.6321C39.1385 32.6496 38.9838 32.6228 38.8458 32.5548C38.7076 32.4867 38.5921 32.3805 38.5129 32.2486C38.4337 32.1166 38.3942 31.9648 38.3991 31.811C38.4039 31.6574 38.453 31.5083 38.5404 31.3818C38.6278 31.2552 38.7498 31.1564 38.8919 31.0974C39.034 31.0383 39.19 31.0214 39.3416 31.0485ZM39.3275 32.4407C39.3427 32.4434 39.3585 32.4415 39.3727 32.4354C39.387 32.4292 39.3991 32.4188 39.4074 32.4058C39.4158 32.3928 39.4201 32.3775 39.4197 32.3621C39.4195 32.3465 39.4147 32.3314 39.4058 32.3187C39.3968 32.3059 39.3844 32.2961 39.3701 32.2905C39.3555 32.2847 39.3397 32.2834 39.3247 32.2868C39.3094 32.2901 39.2955 32.2977 39.2847 32.3089C39.2741 32.32 39.2668 32.3342 39.2641 32.3494C39.2622 32.3597 39.2624 32.3701 39.2646 32.3801C39.2668 32.3902 39.2709 32.3998 39.2769 32.4082C39.2826 32.4168 39.2903 32.424 39.2988 32.4294C39.3076 32.435 39.3172 32.4389 39.3275 32.4407ZM39.1553 32.4932C39.1634 32.4947 39.172 32.4937 39.1796 32.4904C39.1872 32.4872 39.1938 32.4817 39.1984 32.4746C39.2029 32.4677 39.2053 32.4593 39.2051 32.4512C39.2049 32.4428 39.2023 32.4346 39.1977 32.4277C39.1928 32.4208 39.1861 32.4156 39.1783 32.4125C39.1707 32.4095 39.1621 32.4088 39.154 32.4104C39.1458 32.4123 39.1383 32.4164 39.1326 32.4225C39.1268 32.4285 39.1229 32.4361 39.1214 32.4443C39.1194 32.4553 39.1218 32.4666 39.1281 32.4757C39.1346 32.4848 39.1443 32.4911 39.1553 32.4932ZM38.9468 32.3985C38.9918 32.4065 39.0383 32.4011 39.0803 32.3829C39.1223 32.3647 39.158 32.3342 39.1828 32.2957C39.2075 32.2572 39.2202 32.2122 39.2194 32.1664C39.2185 32.1207 39.204 32.0762 39.1779 32.0385C39.1517 32.0009 39.1151 31.9719 39.0723 31.9552C39.0297 31.9384 38.983 31.9347 38.9382 31.9446C38.8936 31.9542 38.8527 31.9771 38.8209 32.01C38.7891 32.0431 38.7679 32.0848 38.7597 32.1298C38.7489 32.1902 38.7625 32.2524 38.7976 32.3028C38.8328 32.3532 38.8863 32.3876 38.9468 32.3985Z" fill="#2D1A83"/>
<path d="M32.1263 28.6891C32.2892 28.7181 32.4391 28.7971 32.555 28.9152C32.4908 28.9156 32.4276 28.9305 32.3699 28.9587C32.3123 28.9868 32.2617 29.0277 32.2221 29.0781C32.1825 29.1285 32.1548 29.1873 32.141 29.25C32.1272 29.3124 32.1278 29.3775 32.1427 29.4398C32.1575 29.5021 32.1864 29.5605 32.2267 29.6102C32.2673 29.6598 32.3186 29.6998 32.3766 29.7272C32.4348 29.7543 32.4983 29.7681 32.5624 29.7673C32.6266 29.7666 32.6898 29.7514 32.7473 29.7227C32.7 29.8691 32.6117 29.9989 32.4927 30.0963C32.3736 30.1938 32.2291 30.255 32.0761 30.2725C31.9232 30.2901 31.7685 30.2632 31.6305 30.1953C31.4925 30.1272 31.377 30.021 31.2978 29.889C31.2186 29.7571 31.1789 29.6054 31.1838 29.4516C31.1888 29.2979 31.2377 29.1488 31.3251 29.0223C31.4125 28.8957 31.5347 28.7969 31.6766 28.7378C31.8187 28.6788 31.9749 28.6619 32.1263 28.6891ZM32.1358 30.0846C32.1512 30.0874 32.1668 30.0855 32.1812 30.0792C32.1953 30.0731 32.2074 30.0629 32.2158 30.0497C32.2241 30.0366 32.2286 30.0214 32.2282 30.006C32.2278 29.9903 32.223 29.9753 32.2143 29.9626C32.2053 29.9498 32.1929 29.9399 32.1784 29.9344C32.1641 29.9286 32.1482 29.9275 32.133 29.9306C32.1177 29.934 32.104 29.9416 32.0932 29.9529C32.0824 29.9641 32.0752 29.9781 32.0724 29.9933C32.0688 30.0139 32.0735 30.035 32.0854 30.0521C32.0971 30.0692 32.1153 30.0809 32.1358 30.0846ZM31.9567 30.1367C31.9649 30.1382 31.9732 30.1372 31.9811 30.1339C31.9887 30.1306 31.9952 30.125 31.9997 30.1179C32.0041 30.111 32.0065 30.1027 32.0063 30.0945C32.0062 30.0861 32.0036 30.0779 31.9987 30.071C31.9939 30.0643 31.9874 30.059 31.9796 30.056C31.9718 30.0528 31.9632 30.0523 31.955 30.0539C31.947 30.0558 31.9396 30.0599 31.9336 30.0658C31.9279 30.072 31.924 30.0794 31.9225 30.0878C31.9215 30.0932 31.9217 30.0988 31.9228 30.1041C31.924 30.1095 31.9262 30.1147 31.9294 30.1192C31.9325 30.1239 31.9366 30.1278 31.9413 30.1307C31.9459 30.1337 31.9511 30.1358 31.9567 30.1367ZM31.7478 30.0426C31.793 30.0506 31.8395 30.0452 31.8814 30.0268C31.9234 30.0086 31.9591 29.9782 31.9838 29.9397C32.0086 29.9012 32.0212 29.8562 32.0205 29.8105C32.0196 29.7646 32.005 29.7201 31.979 29.6825C31.9528 29.645 31.9161 29.616 31.8734 29.5992C31.8308 29.5825 31.7841 29.5788 31.7395 29.5886C31.6947 29.5983 31.6537 29.6212 31.6219 29.6541C31.5903 29.687 31.5689 29.7287 31.5609 29.7739C31.5501 29.8341 31.5637 29.8964 31.5987 29.9468C31.6338 29.9972 31.6874 30.0316 31.7478 30.0424V30.0426Z" fill="#2D1A83"/>
<path d="M38.1668 34.4495C38.1668 34.4495 38.5627 33.0699 39.8995 33.3561C40.8437 33.5581 41.1801 34.4776 40.9704 35.3481C40.9274 35.572 40.8197 35.7786 40.6607 35.9421C40.5017 36.1056 40.2981 36.2188 40.0753 36.2679C39.8398 36.3221 39.5958 36.3276 39.3581 36.2845C39.1203 36.2413 38.8939 36.1502 38.6924 36.0169C37.891 35.4891 38.1668 34.4495 38.1668 34.4495Z" fill="#60F0F8"/>
<path d="M35.1726 32.7694C34.9974 33.7046 35.7701 33.6641 35.9747 33.2378C36.1205 32.9336 36.3353 32.4153 36.2449 32.076C36.2293 32.0072 36.1962 31.9438 36.1488 31.8917C36.1012 31.8399 36.0409 31.801 35.9739 31.7792C35.4342 31.5849 35.1726 32.7694 35.1726 32.7694Z" fill="#5840FF"/>
<path d="M33.653 32.6243C33.8756 32.336 33.9874 31.9773 33.968 31.6137C33.9593 31.557 33.9344 31.5042 33.8961 31.4616C33.8577 31.419 33.8079 31.3885 33.7527 31.3738C33.3179 31.2526 33.0677 32.0668 33.0677 32.0668C32.8256 32.8181 33.3997 32.9446 33.653 32.6243Z" fill="#5840FF"/>
<path d="M30.2725 29.8356C30.2007 30.6485 30.2543 31.4677 30.4311 32.2644C30.4547 32.3691 30.4834 32.4727 30.5167 32.575C30.6716 32.4936 30.8062 32.3783 30.9109 32.238C31.0155 32.0978 31.0872 31.9358 31.1213 31.7642C31.3128 30.9639 31.0452 30.1265 30.2725 29.8356Z" fill="#60F0F8"/>
<path opacity="0.1" d="M30.545 32.5763C31.0648 34.2289 32.5427 35.3293 34.0242 36.1035C34.9929 36.6055 36.0134 37.0012 37.0673 37.2837C37.2886 37.3429 39.7173 37.8549 40.0132 37.8326L40.0256 37.8286L40.0455 37.8218L40.0693 37.5556L37.0695 36.9916C35.742 36.7286 34.4808 36.2023 33.3601 35.4441C32.2394 34.6857 31.2822 33.7106 30.545 32.5763Z" fill="#180048"/>
<path opacity="0.1" d="M40.4582 39.4998C40.5248 39.5301 40.5964 39.5478 40.6695 39.5521C41.4429 39.6058 41.6901 38.434 41.7602 37.9229C43.8385 37.9573 45.9127 37.7293 47.9335 37.2443L48.0082 36.928C47.1727 37.1562 46.322 37.3261 45.4626 37.4366C44.2824 37.5631 41.5316 37.6708 41.5316 37.6708L41.3459 38.5738C41.3183 38.8033 41.2168 39.018 41.0567 39.185C40.8967 39.352 40.6866 39.4624 40.4582 39.4998Z" fill="#180048"/>
<path opacity="0.1" d="M48.4562 38.6601C48.5343 38.6955 48.6175 38.7189 48.7025 38.7299C49.7609 38.8857 50.0389 36.5992 50.0772 36.2419C52.3576 34.7489 54.0543 32.2354 54.2778 28.8923C53.9524 30.3781 53.4071 31.8068 52.6595 33.1315C51.944 34.3466 50.9347 35.3628 49.7242 36.087C49.7242 36.087 49.5903 36.9354 49.3783 37.8322C49.1972 38.598 48.6201 38.6598 48.4562 38.6601Z" fill="#180048"/>
<path d="M35.1726 32.7694C34.9974 33.7048 35.7703 33.6641 35.9749 33.2378C35.7878 33.4147 35.3591 33.6475 35.3254 33.1372C35.3327 32.6775 35.515 32.2378 35.8352 31.9077C35.9721 31.7973 36.1739 31.997 36.2449 32.076C36.2295 32.0072 36.1962 31.9438 36.1488 31.8919C36.1011 31.8399 36.0409 31.801 35.9739 31.7792C35.4344 31.5849 35.1726 32.7694 35.1726 32.7694Z" fill="#2D1A83"/>
<path d="M33.653 32.6243C33.5879 32.6682 33.5109 32.6909 33.4324 32.6892C33.3539 32.6875 33.2779 32.6617 33.2146 32.6152C33.082 32.4939 33.273 31.9885 33.4637 31.6305C33.6284 31.3145 33.9018 31.552 33.968 31.6137C33.9593 31.5572 33.9344 31.5042 33.8961 31.4616C33.8579 31.419 33.8081 31.3885 33.7527 31.3738C33.3179 31.2527 33.0677 32.0668 33.0677 32.0668C32.8256 32.8181 33.3997 32.9446 33.653 32.6243Z" fill="#2D1A83"/>
<path d="M35.5957 11.0434C35.5373 9.91763 36.0495 9.18195 36.2468 8.96731C36.3085 8.96412 36.4993 8.95422 36.5598 8.97379C36.984 9.11076 37.2345 9.92193 37.2882 10.9556C37.3466 12.0814 37.0561 13.0131 36.7961 13.0266C36.7701 13.0279 36.432 13.0409 36.432 13.0409C36.0297 12.8308 35.6448 11.9889 35.5957 11.0434Z" fill="#D39E40"/>
<path d="M36.2207 8.96864C35.8045 8.99025 35.5142 9.91968 35.5726 11.0446C35.631 12.1695 36.0158 13.064 36.432 13.0424C36.8484 13.0208 37.1385 12.0913 37.0801 10.9664C37.0219 9.84148 36.6371 8.94705 36.2207 8.96864Z" fill="#FFDEA4"/>
<path d="M36.432 13.0424C36.8484 13.0208 37.1385 12.0913 37.0801 10.9664C37.0652 10.6771 37.0286 10.403 36.9754 10.1558L35.8538 12.4396C36.0113 12.8213 36.2176 13.0535 36.432 13.0424Z" fill="#F8C050"/>
<path d="M36.2351 9.24486C36.5934 9.22627 36.885 9.90456 36.9358 10.8846C36.9866 11.8647 36.7779 12.7821 36.4195 12.8007C36.0612 12.8193 35.7283 12.0367 35.6775 11.0567C35.6267 10.0766 35.8769 9.2638 36.2351 9.2452V9.24486ZM36.416 12.734C36.761 12.7161 36.8646 11.8345 36.8157 10.8909C36.7668 9.94726 36.5244 9.29638 36.2386 9.31122C35.8936 9.32911 35.6528 10.1115 35.7017 11.0551C35.7506 11.9987 36.0712 12.7519 36.416 12.734Z" fill="#D39E40"/>
<path fill-rule="evenodd" clip-rule="evenodd" d="M36.2107 9.2234L36.2339 9.22221C36.3319 9.21711 36.4234 9.25998 36.5051 9.3393C36.5865 9.41843 36.6594 9.53502 36.7221 9.68144C36.8476 9.97441 36.9336 10.3918 36.959 10.8834C36.9845 11.3751 36.9449 11.8518 36.8536 12.2087C36.808 12.387 36.7491 12.5367 36.678 12.6436C36.6072 12.7501 36.5213 12.8182 36.4206 12.8234C36.3217 12.8285 36.2274 12.778 36.1426 12.6894C36.0576 12.6006 35.9795 12.4712 35.9118 12.3119C35.7761 11.9932 35.6799 11.5498 35.6542 11.0579C35.6288 10.5659 35.6788 10.115 35.7807 9.78389C35.8317 9.61843 35.8958 9.48166 35.9711 9.38458C36.0405 9.29524 36.121 9.23733 36.2109 9.22476L36.2107 9.2234ZM36.235 9.2452C35.8769 9.26378 35.6267 10.0766 35.6775 11.0567C35.7283 12.0367 36.0612 12.8193 36.4195 12.8007C36.7779 12.7821 36.9866 11.8647 36.9358 10.8846C36.8861 9.92581 36.6061 9.25583 36.2583 9.24462C36.2551 9.24453 36.2522 9.24447 36.249 9.24447C36.2443 9.24449 36.2397 9.2446 36.235 9.24484V9.2452ZM36.7407 12.1556C36.8032 11.8174 36.817 11.363 36.7924 10.8921C36.768 10.4216 36.6955 10.0253 36.5942 9.74932C36.5434 9.6112 36.4859 9.50454 36.4247 9.43374C36.3634 9.36286 36.3011 9.33067 36.2397 9.33385C36.1631 9.33783 36.0889 9.38444 36.0208 9.47222C35.9527 9.55987 35.8928 9.68603 35.8447 9.84248C35.7483 10.1552 35.7005 10.584 35.7249 11.0539C35.7493 11.5238 35.8413 11.9453 35.9693 12.2463C36.0334 12.397 36.1062 12.5162 36.1828 12.5964C36.2596 12.6767 36.3383 12.7154 36.4149 12.7114C36.4896 12.7075 36.5549 12.657 36.6107 12.5601C36.6663 12.4634 36.7095 12.3249 36.7407 12.1556ZM36.8157 10.8909C36.8646 11.8345 36.761 12.7161 36.416 12.734C36.0712 12.7519 35.7508 11.9987 35.7017 11.0551C35.6528 10.1115 35.8936 9.32911 36.2386 9.3112C36.5244 9.29638 36.7667 9.94725 36.8157 10.8909Z" fill="#D39E40"/>
<path d="M40.4957 18.7096C39.7736 16.5531 40.347 14.8545 40.6053 14.3337C40.7208 14.2951 41.0778 14.1755 41.2036 14.1817C42.0836 14.2248 42.9999 15.6689 43.6629 17.6491C44.3851 19.8056 44.3391 21.7685 43.8526 21.9313C43.8039 21.9476 43.1686 22.1507 43.1686 22.1507C42.2904 21.954 41.1022 20.5208 40.4957 18.7096Z" fill="#D39E40"/>
<path d="M40.5566 14.35C39.7775 14.6109 39.7308 16.5693 40.4524 18.7241C41.174 20.879 42.3905 22.4144 43.1695 22.1535C43.9488 21.8926 43.9953 19.9343 43.2739 17.7794C42.5523 15.6245 41.3358 14.0892 40.5566 14.35Z" fill="#FFDEA4"/>
<path d="M43.1695 22.1535C43.9488 21.8926 43.9953 19.9343 43.2739 17.7794C43.0882 17.2252 42.8699 16.7119 42.6347 16.2597L41.744 21.2865C42.2502 21.9452 42.768 22.288 43.1695 22.1535Z" fill="#F8C050"/>
<path d="M40.7338 14.8791C41.4044 14.6545 42.3265 15.819 42.9551 17.6964C43.5837 19.5738 43.6852 21.466 43.0146 21.6904C42.344 21.9151 41.2869 20.5697 40.6581 18.6923C40.0295 16.8149 40.0635 15.1042 40.734 14.8797L40.7338 14.8791ZM42.9718 21.5627C43.6174 21.3466 43.3354 19.5792 42.7303 17.7717C42.1251 15.9641 41.3114 14.827 40.7764 15.0062C40.1309 15.2223 40.0981 16.8689 40.7033 18.6765C41.3087 20.484 42.3263 21.779 42.9718 21.5627Z" fill="#D39E40"/>
<path fill-rule="evenodd" clip-rule="evenodd" d="M40.676 14.8502L40.7193 14.8357C40.9027 14.7743 41.0996 14.8094 41.2979 14.9206C41.4956 15.0315 41.6975 15.2196 41.8962 15.4711C42.2934 15.9744 42.6832 16.7401 42.9984 17.6819C43.3139 18.6237 43.4976 19.5707 43.5179 20.312C43.5279 20.6824 43.4974 21.0044 43.4202 21.2495C43.3434 21.4937 43.2171 21.6709 43.0291 21.7339C42.8437 21.7961 42.6375 21.7475 42.4281 21.6199C42.2185 21.4922 41.9999 21.2818 41.7846 21.0079C41.354 20.4598 40.9304 19.6492 40.6148 18.7068C40.2994 17.7645 40.1493 16.8622 40.1632 16.1653C40.1701 15.817 40.2181 15.5175 40.3085 15.2893C40.3916 15.0793 40.5131 14.9244 40.6767 14.8528L40.676 14.8502ZM40.734 14.8797C40.0636 15.1042 40.0295 16.8149 40.6581 18.6923C41.2869 20.5697 42.344 21.9151 43.0146 21.6904C43.6852 21.466 43.5837 19.5738 42.9551 17.6964C42.3401 15.8597 41.4444 14.7053 40.7779 14.8664C40.7719 14.8678 40.766 14.8694 40.76 14.871C40.7513 14.8735 40.7426 14.8761 40.7338 14.879L40.734 14.8797ZM43.2744 20.2683C43.2095 19.5783 42.989 18.6884 42.6869 17.7862C42.3851 16.8849 42.0321 16.1533 41.6897 15.6704C41.5183 15.4287 41.3513 15.2517 41.1965 15.1463C41.0418 15.0408 40.9057 15.0111 40.7909 15.0496C40.6473 15.0976 40.5318 15.2271 40.45 15.4335C40.3684 15.6396 40.3232 15.9162 40.3167 16.2454C40.3035 16.9036 40.4454 17.7618 40.7468 18.662C41.0481 19.5621 41.4517 20.3326 41.8584 20.8502C42.0621 21.1091 42.2648 21.3027 42.4539 21.418C42.6434 21.5336 42.8138 21.5675 42.9573 21.5193C43.097 21.4725 43.1939 21.34 43.2471 21.1225C43.3001 20.9054 43.307 20.6136 43.2744 20.2683ZM42.7303 17.7717C43.3354 19.5792 43.6174 21.3466 42.9718 21.5627C42.3263 21.7789 41.3087 20.484 40.7033 18.6765C40.0982 16.8689 40.1309 15.2223 40.7764 15.0062C41.3115 14.827 42.1251 15.9641 42.7303 17.7717Z" fill="#D39E40"/>
<path d="M43.136 17.1583C42.8098 15.7197 43.2898 14.6606 43.4903 14.3413C43.5675 14.3238 43.8056 14.2698 43.8865 14.2819C44.4515 14.3668 44.9493 15.3583 45.2489 16.6792C45.5751 18.1179 45.4182 19.3817 45.0936 19.4554C45.0613 19.4626 44.638 19.5525 44.638 19.5525C44.084 19.3687 43.41 18.3666 43.136 17.1583Z" fill="#D39E40"/>
<path d="M43.458 14.3486C42.9384 14.4665 42.7812 15.7273 43.1072 17.1649C43.4331 18.6024 44.1187 19.6722 44.6385 19.5543C45.1582 19.4364 45.3153 18.1756 44.9893 16.7381C44.6633 15.3005 43.9778 14.2307 43.458 14.3486Z" fill="#FFDEA4"/>
<path d="M44.6385 19.5543C45.1582 19.4364 45.3153 18.1756 44.9893 16.7381C44.9054 16.3683 44.7979 16.023 44.6754 15.7158L43.7745 18.9023C44.0587 19.3603 44.3706 19.6151 44.6385 19.5543Z" fill="#F8C050"/>
<path d="M43.5379 14.7016C43.9854 14.6002 44.505 15.4115 44.789 16.664C45.073 17.9164 45.0159 19.1442 44.5684 19.2456C44.121 19.3471 43.526 18.4102 43.242 17.1578C42.9581 15.9054 43.0908 14.8035 43.5381 14.7021L43.5379 14.7016ZM44.5491 19.1604C44.9796 19.0628 44.9125 17.9038 44.6389 16.698C44.3655 15.4922 43.9142 14.7055 43.5573 14.7864C43.1265 14.8841 42.9988 15.9447 43.2722 17.1505C43.5456 18.3563 44.1185 19.2581 44.5491 19.1604Z" fill="#D39E40"/>
<path fill-rule="evenodd" clip-rule="evenodd" d="M43.5024 14.6792L43.5314 14.6727C43.6538 14.6449 43.7786 14.6804 43.8993 14.765C44.0196 14.8494 44.1379 14.9839 44.2497 15.1591C44.4736 15.5096 44.6754 16.0291 44.8178 16.6574C44.9603 17.2856 45.0175 17.9087 44.9826 18.3885C44.9651 18.6283 44.9244 18.834 44.8587 18.9873C44.7934 19.1398 44.7003 19.2461 44.5749 19.2746C44.4513 19.3027 44.3213 19.2579 44.1944 19.1619C44.0674 19.0659 43.94 18.916 43.8188 18.7252C43.5764 18.3437 43.3555 17.793 43.213 17.1644C43.0704 16.5357 43.0323 15.9436 43.0864 15.4947C43.1133 15.2704 43.1637 15.0802 43.2368 14.9388C43.3042 14.8086 43.3927 14.7166 43.5028 14.681L43.5024 14.6792ZM43.5381 14.7021C43.0908 14.8035 42.9579 15.9054 43.2419 17.1578C43.526 18.4102 44.121 19.3471 44.5684 19.2456C45.0157 19.1442 45.073 17.9163 44.789 16.6639C44.5111 15.4387 44.0079 14.6356 43.5671 14.6963C43.5632 14.6968 43.5593 14.6974 43.5554 14.6981C43.5496 14.6991 43.5437 14.7003 43.5379 14.7016L43.5381 14.7021ZM44.8284 18.3445C44.8312 17.8951 44.7464 17.3063 44.6101 16.7045C44.4736 16.1033 44.2934 15.6082 44.1037 15.2743C44.0086 15.1072 43.9123 14.9821 43.8193 14.9041C43.7261 14.826 43.6404 14.798 43.5638 14.8154C43.468 14.8371 43.3851 14.9132 43.3188 15.0411C43.2528 15.1688 43.2058 15.3443 43.1801 15.5564C43.129 15.9803 43.1649 16.5434 43.301 17.1439C43.4373 17.7444 43.6477 18.2679 43.8768 18.6283C43.9913 18.8085 44.1096 18.9467 44.2242 19.0334C44.3391 19.1202 44.4466 19.1532 44.5424 19.1314C44.6357 19.1102 44.7068 19.031 44.7551 18.8941C44.8037 18.7574 44.8269 18.5695 44.8284 18.3445ZM44.6389 16.6979C44.9123 17.9037 44.9796 19.0628 44.5491 19.1604C44.1184 19.258 43.5456 18.3563 43.2722 17.1505C42.9988 15.9447 43.1265 14.8841 43.5573 14.7864C43.9142 14.7055 44.3655 15.4921 44.6389 16.6979Z" fill="#D39E40"/>
<path d="M35.2754 13.0532C34.7848 12.3689 34.8025 11.7053 34.8371 11.4929C34.8737 11.4666 34.9872 11.3854 35.0322 11.3738C35.3483 11.2931 35.83 11.7042 36.2806 12.3326C36.7712 13.017 36.9689 13.7166 36.8146 13.8273C36.7991 13.8383 36.5966 13.9795 36.5966 13.9795C36.2643 14.0056 35.6875 13.628 35.2754 13.0532Z" fill="#D39E40"/>
<path d="M34.8216 11.504C34.5745 11.6813 34.7714 12.3793 35.2617 13.0631C35.7521 13.747 36.3498 14.1576 36.5971 13.9804C36.8443 13.8031 36.6474 13.105 36.1571 12.4212C35.6667 11.7374 35.069 11.3267 34.8216 11.504Z" fill="#FFDEA4"/>
<path d="M36.5972 13.9804C36.8443 13.8031 36.6474 13.105 36.1571 12.4212C36.031 12.2453 35.8977 12.0875 35.7653 11.9531L35.9981 13.829C36.2492 14.0069 36.4698 14.0717 36.5972 13.9804Z" fill="#F8C050"/>
<path d="M34.942 11.6719C35.1549 11.5193 35.6081 11.8309 36.0351 12.4267C36.4623 13.0224 36.7046 13.6809 36.4917 13.8335C36.279 13.9861 35.7582 13.6253 35.331 13.0295C34.9038 12.4337 34.7294 11.8247 34.9422 11.6721L34.942 11.6719ZM36.4627 13.793C36.6676 13.6461 36.3751 13.0514 35.9639 12.4778C35.5525 11.9042 35.1408 11.5905 34.971 11.7123C34.766 11.8591 34.934 12.4454 35.3454 13.019C35.7565 13.5926 36.2579 13.9398 36.4627 13.793Z" fill="#D39E40"/>
<path fill-rule="evenodd" clip-rule="evenodd" d="M34.9184 11.6679L34.9321 11.658C34.9903 11.6163 35.0638 11.6073 35.1462 11.625C35.2282 11.6427 35.3202 11.6872 35.4179 11.7546C35.6133 11.8893 35.8347 12.1178 36.0489 12.4167C36.2633 12.7155 36.4315 13.0306 36.5196 13.2907C36.5635 13.4207 36.5879 13.5379 36.5873 13.6331C36.5867 13.7278 36.5613 13.8044 36.5016 13.8471C36.4428 13.8893 36.3645 13.8947 36.2765 13.8723C36.1884 13.85 36.0881 13.7994 35.9821 13.7259C35.7699 13.579 35.5317 13.3383 35.3173 13.0393C35.1028 12.7402 34.9515 12.4373 34.8804 12.1892C34.8449 12.0652 34.8291 11.954 34.8362 11.8633C34.8427 11.78 34.8689 11.7119 34.9189 11.6687L34.9184 11.6679ZM34.9422 11.672C34.7294 11.8246 34.9038 12.4336 35.331 13.0294C35.7582 13.6252 36.279 13.986 36.4917 13.8334C36.7046 13.6808 36.4623 13.0223 36.0351 12.4265C35.6172 11.8437 35.1744 11.5329 34.9561 11.6625C34.9542 11.6637 34.9524 11.6649 34.9503 11.6661C34.9476 11.6679 34.9448 11.6698 34.942 11.6718L34.9422 11.672ZM36.4287 13.3018C36.3305 13.0647 36.1553 12.7738 35.9501 12.4876C35.745 12.2015 35.5404 11.9811 35.3666 11.8476C35.2795 11.7808 35.201 11.7363 35.1348 11.7159C35.0686 11.6955 35.0173 11.6998 34.9808 11.7259C34.9353 11.7586 34.9085 11.817 34.902 11.8989C34.8957 11.9808 34.9098 12.0836 34.9433 12.2008C35.0104 12.4351 35.1544 12.7233 35.3591 13.009C35.5639 13.2946 35.7908 13.5233 35.9911 13.6621C36.0913 13.7315 36.1841 13.7779 36.2637 13.7981C36.3433 13.8183 36.4073 13.8117 36.4528 13.7791C36.4971 13.7473 36.517 13.6898 36.5122 13.6071C36.5071 13.5244 36.4778 13.4204 36.4287 13.3018ZM35.9639 12.4777C36.3751 13.0513 36.6675 13.646 36.4627 13.7928C36.2579 13.9397 35.7565 13.5925 35.3454 13.0188C34.934 12.4452 34.766 11.859 34.971 11.7121C35.1408 11.5904 35.5525 11.9041 35.9639 12.4777Z" fill="#D39E40"/>
<path d="M45.6835 19.834C44.0246 19.9949 41.6514 20.33 40.5383 20.9815L42.3257 22.7285L45.3912 22.1338L45.6835 19.834Z" fill="#5840FF"/>
<path d="M42.1572 7.1097C42.381 6.04456 43.0287 5.482 43.2614 5.32952C43.3185 5.3415 43.4948 5.37854 43.5452 5.41152C43.8982 5.64228 43.927 6.46033 43.7215 7.43834C43.4978 8.50347 43.0038 9.30276 42.7635 9.25229C42.7395 9.24725 42.428 9.17734 42.428 9.17734C42.113 8.88359 41.9692 8.00426 42.1572 7.1097Z" fill="#D39E40"/>
<path d="M43.2374 5.32443C42.8526 5.24359 42.3594 6.04085 42.1359 7.10517C41.9123 8.16949 42.0429 9.09782 42.4277 9.17864C42.8127 9.25949 43.3059 8.46223 43.5294 7.39791C43.7529 6.33361 43.6222 5.40527 43.2374 5.32443Z" fill="#FFDEA4"/>
<path d="M42.4277 9.17864C42.8126 9.25948 43.3058 8.46222 43.5294 7.3979C43.5868 7.12417 43.6209 6.85943 43.6333 6.61578L42.049 8.47565C42.0987 8.87018 42.2294 9.13698 42.4277 9.17864Z" fill="#F8C050"/>
<path d="M43.1826 5.58568C43.514 5.65528 43.6127 6.35919 43.4178 7.28647C43.2231 8.21374 42.8071 9.01956 42.4758 8.94996C42.1446 8.88037 42.0338 8.06907 42.2285 7.1418C42.4234 6.21452 42.8513 5.51644 43.1826 5.58602V5.58568ZM42.489 8.88684C42.808 8.95383 43.1193 8.1559 43.3068 7.26315C43.4944 6.37039 43.4338 5.70398 43.1693 5.64847C42.8506 5.58148 42.4386 6.25343 42.251 7.14619C42.0635 8.03894 42.1703 8.81987 42.489 8.88684Z" fill="#D39E40"/>
<path fill-rule="evenodd" clip-rule="evenodd" d="M43.1656 5.55979L43.187 5.56429C43.2776 5.58334 43.3505 5.64553 43.4053 5.73939C43.4602 5.83301 43.4981 5.95959 43.5192 6.11149C43.5614 6.41539 43.537 6.8259 43.4392 7.29102C43.3415 7.7562 43.1881 8.19163 43.0172 8.50263C42.9317 8.65802 42.8411 8.78355 42.75 8.86609C42.6592 8.94831 42.5642 8.99095 42.4714 8.97144C42.3797 8.95219 42.3062 8.88225 42.2506 8.7789C42.195 8.67541 42.1558 8.53568 42.1331 8.37054C42.0879 8.04002 42.1093 7.60279 42.2071 7.13735C42.3049 6.67191 42.4613 6.26308 42.6358 5.9787C42.7228 5.8366 42.8151 5.72451 42.9077 5.65215C42.9928 5.58557 43.0804 5.55105 43.1654 5.5611L43.1656 5.55979ZM43.1825 5.58605C42.8513 5.5165 42.4232 6.21458 42.2285 7.14185C42.0338 8.06913 42.1446 8.88043 42.4758 8.95002C42.8071 9.01961 43.2231 8.2138 43.4178 7.28652C43.6084 6.37937 43.518 5.68598 43.2037 5.59115C43.201 5.59031 43.1982 5.58951 43.1954 5.58875C43.1911 5.58763 43.1868 5.58663 43.1825 5.58574V5.58605ZM42.9274 8.4257C43.0674 8.12514 43.1918 7.7043 43.2854 7.2587C43.3789 6.81355 43.4102 6.42605 43.3856 6.14378C43.3733 6.00253 43.3473 5.88901 43.309 5.80807C43.2705 5.72704 43.2216 5.68185 43.1649 5.66995C43.094 5.65505 43.015 5.68057 42.9313 5.74599C42.8476 5.81131 42.762 5.91454 42.6797 6.04891C42.5149 6.31748 42.3657 6.70615 42.2724 7.15074C42.179 7.59532 42.1591 8.01114 42.2019 8.32326C42.2231 8.47943 42.2601 8.6084 42.3103 8.70185C42.3605 8.79542 42.4226 8.85058 42.4935 8.86547C42.5625 8.87998 42.6347 8.8487 42.7092 8.77176C42.7836 8.69497 42.8571 8.57613 42.9274 8.4257ZM43.3068 7.2632C43.1193 8.15596 42.8078 8.95389 42.489 8.8869C42.1703 8.81993 42.0633 8.039 42.251 7.14624C42.4384 6.25348 42.8506 5.58153 43.1693 5.64852C43.4336 5.70404 43.4944 6.37042 43.3068 7.2632Z" fill="#D39E40"/>
<path d="M48.5628 7.60073C49.4241 6.8733 50.3195 6.83609 50.6098 6.86346C50.6498 6.91068 50.7731 7.05662 50.7942 7.11671C50.9416 7.53729 50.4471 8.22747 49.6564 8.8954C48.7951 9.62282 47.8775 9.95499 47.7096 9.75615C47.6928 9.73627 47.4778 9.47484 47.4778 9.47484C47.402 9.0274 47.8396 8.21166 48.5628 7.60073Z" fill="#D39E40"/>
<path d="M50.5931 6.84353C50.3242 6.52504 49.4084 6.85612 48.5479 7.58297C47.6874 8.30983 47.2078 9.15723 47.4767 9.47571C47.7458 9.79418 48.6616 9.46312 49.5221 8.73627C50.3826 8.00941 50.862 7.16199 50.5931 6.84353Z" fill="#FFDEA4"/>
<path d="M47.4767 9.47571C47.7458 9.79418 48.6616 9.46312 49.5221 8.73628C49.7434 8.54931 49.9394 8.35441 50.1042 8.16256L47.6071 8.65067C47.3984 9.00691 47.3382 9.31157 47.4767 9.47571Z" fill="#F8C050"/>
<path d="M50.3818 7.02196C50.6134 7.2961 50.2496 7.93848 49.4998 8.57175C48.7501 9.20501 47.8933 9.59368 47.6618 9.31954C47.43 9.04539 47.852 8.30701 48.6017 7.67375C49.3515 7.04048 50.1501 6.74811 50.3817 7.02218L50.3818 7.02196ZM47.7127 9.27643C47.9355 9.54029 48.7004 9.08956 49.4222 8.47986C50.144 7.87015 50.5159 7.28355 50.3311 7.06482C50.1083 6.80096 49.3394 7.08238 48.6177 7.69208C47.8959 8.30177 47.4899 9.01258 47.7127 9.27643Z" fill="#D39E40"/>
<path fill-rule="evenodd" clip-rule="evenodd" d="M50.3843 6.98964L50.3992 7.00736C50.4626 7.08234 50.4838 7.18108 50.4698 7.29408C50.4561 7.4068 50.4075 7.53551 50.3289 7.67397C50.1713 7.95104 49.8909 8.27188 49.5148 8.58955C49.1386 8.90723 48.7352 9.16406 48.3956 9.30721C48.2262 9.37872 48.0713 9.4224 47.9432 9.4304C47.8154 9.43838 47.7092 9.41108 47.6443 9.33421C47.5803 9.25841 47.5636 9.1529 47.5829 9.0317C47.6021 8.91034 47.6579 8.76989 47.7438 8.61958C47.9156 8.31877 48.2104 7.97393 48.5868 7.65606C48.963 7.33819 49.3525 7.10524 49.6778 6.98614C49.8403 6.92663 49.9881 6.89509 50.1109 6.89637C50.2242 6.89754 50.3188 6.92665 50.3832 6.99051L50.3843 6.98964ZM50.3817 7.02222C50.1501 6.74817 49.3515 7.04052 48.6017 7.6738C47.852 8.30707 47.4301 9.04543 47.6618 9.31959C47.8933 9.59374 48.7501 9.20507 49.4998 8.57181C50.2333 7.95228 50.5974 7.32402 50.3962 7.04037C50.3943 7.03782 50.3925 7.03533 50.3906 7.03284C50.3878 7.02917 50.3848 7.02555 50.3819 7.022L50.3817 7.02222ZM48.3698 9.18519C48.6768 9.03036 49.0469 8.76648 49.4072 8.46217C49.7672 8.15818 50.0387 7.86073 50.1972 7.61304C50.2766 7.48907 50.3268 7.37879 50.3461 7.28723C50.3655 7.19559 50.3534 7.12644 50.3138 7.07952C50.2641 7.02081 50.1823 6.98999 50.0711 6.98882C49.9602 6.98766 49.8236 7.01627 49.6698 7.07254C49.3625 7.18502 48.9921 7.40624 48.6328 7.70986C48.2733 8.01349 47.9932 8.34168 47.8308 8.62577C47.7497 8.76792 47.6986 8.89789 47.6813 9.00749C47.6638 9.11722 47.6806 9.20316 47.73 9.26185C47.7784 9.31898 47.858 9.3405 47.969 9.32627C48.0795 9.31206 48.216 9.26267 48.3698 9.18519ZM49.4222 8.4799C48.7005 9.0896 47.9355 9.54035 47.7127 9.27649C47.4899 9.01262 47.8959 8.30182 48.6177 7.69212C49.3395 7.08244 50.1083 6.80102 50.3311 7.06488C50.5158 7.28361 50.144 7.87021 49.4222 8.4799Z" fill="#D39E40"/>
<defs>
<linearGradient id="paint0_linear_1_71" x1="18.5936" y1="24.5784" x2="13.9473" y2="24.5784" gradientUnits="userSpaceOnUse">
<stop/>
<stop offset="0.4481" stop-color="#100030"/>
<stop offset="0.8399" stop-color="#180070"/>
<stop offset="1"/>
</linearGradient>
<linearGradient id="paint1_linear_1_71" x1="27.3782" y1="21.7418" x2="22.7319" y2="21.7418" gradientUnits="userSpaceOnUse">
<stop/>
<stop offset="0.4481" stop-color="#100030"/>
<stop offset="0.8399" stop-color="#180070"/>
<stop offset="1"/>
</linearGradient>
</defs>
</svg>
